<?xml version="1.0" encoding="UTF-8" standalone="no"?>
<!DOCTYPE svg PUBLIC "-//W3C//DTD SVG 1.1//EN"
 "http://www.w3.org/Graphics/SVG/1.1/DTD/svg11.dtd">
<!-- Generated by graphviz version 2.38.0 (20140413.2041)
 -->
<!-- Title: g Pages: 1 -->
<svg width="3003pt" height="836pt"
 viewBox="0.00 0.00 3003.02 836.00" xmlns="http://www.w3.org/2000/svg" xmlns:xlink="http://www.w3.org/1999/xlink">
<g id="graph0" class="graph" transform="scale(1 1) rotate(0) translate(4 832)">
<title>g</title>
<polygon fill="white" stroke="none" points="-4,4 -4,-832 2999.02,-832 2999.02,4 -4,4"/>
<!--  Antibody_tests  -->
<g id="node1" class="node"><title> Antibody_tests </title>
<ellipse fill="none" stroke="black" cx="1475.56" cy="-306" rx="74.1798" ry="18"/>
<text text-anchor="middle" x="1475.56" y="-301.8" font-family="Times,serif" font-size="14.00"> Antibody_tests </text>
</g>
<!--  Antibody_tests_relative_to_capacity  -->
<g id="node2" class="node"><title> Antibody_tests_relative_to_capacity </title>
<ellipse fill="none" stroke="black" cx="1629.56" cy="-234" rx="157.426" ry="18"/>
<text text-anchor="middle" x="1629.56" y="-229.8" font-family="Times,serif" font-size="14.00"> Antibody_tests_relative_to_capacity </text>
</g>
<!--  Antibody_tests &#45;&gt; Antibody_tests_relative_to_capacity  -->
<g id="edge1" class="edge"><title> Antibody_tests &#45;&gt; Antibody_tests_relative_to_capacity </title>
<path fill="none" stroke="black" d="M1508.98,-289.811C1530.84,-279.872 1559.7,-266.754 1583.7,-255.843"/>
<polygon fill="black" stroke="black" points="1585.32,-258.952 1592.98,-251.628 1582.43,-252.58 1585.32,-258.952"/>
</g>
<!--  Cumulative_COVID_19_deaths_on_certificate  -->
<g id="node3" class="node"><title> Cumulative_COVID_19_deaths_on_certificate </title>
<ellipse fill="none" stroke="black" cx="1091.56" cy="-594" rx="198.44" ry="18"/>
<text text-anchor="middle" x="1091.56" y="-589.8" font-family="Times,serif" font-size="14.00"> Cumulative_COVID_19_deaths_on_certificate </text>
</g>
<!--  Antibody_tests_capacity  -->
<g id="node4" class="node"><title> Antibody_tests_capacity </title>
<ellipse fill="none" stroke="black" cx="1175.56" cy="-522" rx="111.179" ry="18"/>
<text text-anchor="middle" x="1175.56" y="-517.8" font-family="Times,serif" font-size="14.00"> Antibody_tests_capacity </text>
</g>
<!--  Cumulative_COVID_19_deaths_on_certificate &#45;&gt; Antibody_tests_capacity  -->
<g id="edge2" class="edge"><title> Cumulative_COVID_19_deaths_on_certificate &#45;&gt; Antibody_tests_capacity </title>
<path fill="none" stroke="black" d="M1111.89,-576.055C1122.62,-567.113 1135.95,-556.005 1147.64,-546.268"/>
<polygon fill="black" stroke="black" points="1149.97,-548.88 1155.41,-539.789 1145.49,-543.502 1149.97,-548.88"/>
</g>
<!--  Pillar_2_tests_capacity  -->
<g id="node27" class="node"><title> Pillar_2_tests_capacity </title>
<ellipse fill="none" stroke="black" cx="825.56" cy="-306" rx="105.372" ry="18"/>
<text text-anchor="middle" x="825.56" y="-301.8" font-family="Times,serif" font-size="14.00"> Pillar_2_tests_capacity </text>
</g>
<!--  Cumulative_COVID_19_deaths_on_certificate &#45;&gt; Pillar_2_tests_capacity  -->
<g id="edge21" class="edge"><title> Cumulative_COVID_19_deaths_on_certificate &#45;&gt; Pillar_2_tests_capacity </title>
<path fill="none" stroke="black" d="M1079.62,-575.824C1054.39,-539.706 996.048,-457.147 972.56,-432 935.981,-392.839 887.721,-353.813 856.659,-330.043"/>
<polygon fill="black" stroke="black" points="858.459,-327.015 848.378,-323.756 854.226,-332.59 858.459,-327.015"/>
</g>
<!--  Pillar_3_tests_capacity  -->
<g id="node30" class="node"><title> Pillar_3_tests_capacity </title>
<ellipse fill="none" stroke="black" cx="1450.56" cy="-450" rx="105.372" ry="18"/>
<text text-anchor="middle" x="1450.56" y="-445.8" font-family="Times,serif" font-size="14.00"> Pillar_3_tests_capacity </text>
</g>
<!--  Antibody_tests_capacity &#45;&gt; Pillar_3_tests_capacity  -->
<g id="edge25" class="edge"><title> Antibody_tests_capacity &#45;&gt; Pillar_3_tests_capacity </title>
<path fill="none" stroke="black" d="M1232.54,-506.496C1276.66,-495.266 1337.85,-479.69 1384.18,-467.897"/>
<polygon fill="black" stroke="black" points="1385.3,-471.224 1394.12,-465.366 1383.57,-464.441 1385.3,-471.224"/>
</g>
<!--  Pillar_3_tests_relative_to_capacity  -->
<g id="node31" class="node"><title> Pillar_3_tests_relative_to_capacity </title>
<ellipse fill="none" stroke="black" cx="1175.56" cy="-450" rx="151.619" ry="18"/>
<text text-anchor="middle" x="1175.56" y="-445.8" font-family="Times,serif" font-size="14.00"> Pillar_3_tests_relative_to_capacity </text>
</g>
<!--  Antibody_tests_capacity &#45;&gt; Pillar_3_tests_relative_to_capacity  -->
<g id="edge26" class="edge"><title> Antibody_tests_capacity &#45;&gt; Pillar_3_tests_relative_to_capacity </title>
<path fill="none" stroke="black" d="M1175.56,-503.697C1175.56,-495.983 1175.56,-486.712 1175.56,-478.112"/>
<polygon fill="black" stroke="black" points="1179.06,-478.104 1175.56,-468.104 1172.06,-478.104 1179.06,-478.104"/>
</g>
<!--  Pillar_4_tests_capacity  -->
<g id="node32" class="node"><title> Pillar_4_tests_capacity </title>
<ellipse fill="none" stroke="black" cx="1679.56" cy="-450" rx="105.372" ry="18"/>
<text text-anchor="middle" x="1679.56" y="-445.8" font-family="Times,serif" font-size="14.00"> Pillar_4_tests_capacity </text>
</g>
<!--  Antibody_tests_capacity &#45;&gt; Pillar_4_tests_capacity  -->
<g id="edge28" class="edge"><title> Antibody_tests_capacity &#45;&gt; Pillar_4_tests_capacity </title>
<path fill="none" stroke="black" d="M1255.91,-509.53C1269.15,-507.664 1282.74,-505.766 1295.56,-504 1415.05,-487.54 1445.12,-484.82 1564.56,-468 1573.83,-466.695 1583.52,-465.304 1593.16,-463.902"/>
<polygon fill="black" stroke="black" points="1593.79,-467.347 1603.18,-462.44 1592.78,-460.421 1593.79,-467.347"/>
</g>
<!--  Deaths_within_28_days_of_COVID  -->
<g id="node5" class="node"><title> Deaths_within_28_days_of_COVID </title>
<ellipse fill="none" stroke="black" cx="1077.56" cy="-162" rx="157.435" ry="18"/>
<text text-anchor="middle" x="1077.56" y="-157.8" font-family="Times,serif" font-size="14.00"> Deaths_within_28_days_of_COVID </text>
</g>
<!--  Deaths_with_COVID_on_certificate  -->
<g id="node6" class="node"><title> Deaths_with_COVID_on_certificate </title>
<ellipse fill="none" stroke="black" cx="1077.56" cy="-90" rx="157.965" ry="18"/>
<text text-anchor="middle" x="1077.56" y="-85.8" font-family="Times,serif" font-size="14.00"> Deaths_with_COVID_on_certificate </text>
</g>
<!--  Deaths_within_28_days_of_COVID &#45;&gt; Deaths_with_COVID_on_certificate  -->
<g id="edge3" class="edge"><title> Deaths_within_28_days_of_COVID &#45;&gt; Deaths_with_COVID_on_certificate </title>
<path fill="none" stroke="black" d="M1077.56,-143.697C1077.56,-135.983 1077.56,-126.712 1077.56,-118.112"/>
<polygon fill="black" stroke="black" points="1081.06,-118.104 1077.56,-108.104 1074.06,-118.104 1081.06,-118.104"/>
</g>
<!--  Deaths_within_28_days_of_COVID_21_days_forward  -->
<g id="node7" class="node"><title> Deaths_within_28_days_of_COVID_21_days_forward </title>
<ellipse fill="none" stroke="black" cx="1483.56" cy="-90" rx="229.737" ry="18"/>
<text text-anchor="middle" x="1483.56" y="-85.8" font-family="Times,serif" font-size="14.00"> Deaths_within_28_days_of_COVID_21_days_forward </text>
</g>
<!--  Deaths_with_COVID_on_certificate_22_days_forward  -->
<g id="node8" class="node"><title> Deaths_with_COVID_on_certificate_22_days_forward </title>
<ellipse fill="none" stroke="black" cx="1483.56" cy="-18" rx="230.267" ry="18"/>
<text text-anchor="middle" x="1483.56" y="-13.8" font-family="Times,serif" font-size="14.00"> Deaths_with_COVID_on_certificate_22_days_forward </text>
</g>
<!--  Deaths_within_28_days_of_COVID_21_days_forward &#45;&gt; Deaths_with_COVID_on_certificate_22_days_forward  -->
<g id="edge4" class="edge"><title> Deaths_within_28_days_of_COVID_21_days_forward &#45;&gt; Deaths_with_COVID_on_certificate_22_days_forward </title>
<path fill="none" stroke="black" d="M1483.56,-71.6966C1483.56,-63.9827 1483.56,-54.7125 1483.56,-46.1124"/>
<polygon fill="black" stroke="black" points="1487.06,-46.1043 1483.56,-36.1043 1480.06,-46.1044 1487.06,-46.1043"/>
</g>
<!--  Hospital_admissions_14_days_forward  -->
<g id="node9" class="node"><title> Hospital_admissions_14_days_forward </title>
<ellipse fill="none" stroke="black" cx="1436.56" cy="-162" rx="168.969" ry="18"/>
<text text-anchor="middle" x="1436.56" y="-157.8" font-family="Times,serif" font-size="14.00"> Hospital_admissions_14_days_forward </text>
</g>
<!--  Hospital_admissions_14_days_forward &#45;&gt; Deaths_within_28_days_of_COVID_21_days_forward  -->
<g id="edge5" class="edge"><title> Hospital_admissions_14_days_forward &#45;&gt; Deaths_within_28_days_of_COVID_21_days_forward </title>
<path fill="none" stroke="black" d="M1448.18,-143.697C1453.7,-135.474 1460.41,-125.483 1466.49,-116.421"/>
<polygon fill="black" stroke="black" points="1469.41,-118.358 1472.08,-108.104 1463.6,-114.456 1469.41,-118.358"/>
</g>
<!--  Journeys_activity  -->
<g id="node10" class="node"><title> Journeys_activity </title>
<ellipse fill="none" stroke="black" cx="1203.56" cy="-810" rx="83.9701" ry="18"/>
<text text-anchor="middle" x="1203.56" y="-805.8" font-family="Times,serif" font-size="14.00"> Journeys_activity </text>
</g>
<!--  First_dose_uptake  -->
<g id="node11" class="node"><title> First_dose_uptake </title>
<ellipse fill="none" stroke="black" cx="937.56" cy="-738" rx="86.8397" ry="18"/>
<text text-anchor="middle" x="937.56" y="-733.8" font-family="Times,serif" font-size="14.00"> First_dose_uptake </text>
</g>
<!--  Journeys_activity &#45;&gt; First_dose_uptake  -->
<g id="edge6" class="edge"><title> Journeys_activity &#45;&gt; First_dose_uptake </title>
<path fill="none" stroke="black" d="M1152.59,-795.586C1108.79,-784.06 1045.51,-767.409 998.939,-755.152"/>
<polygon fill="black" stroke="black" points="999.828,-751.767 989.267,-752.607 998.047,-758.537 999.828,-751.767"/>
</g>
<!--  Schools  -->
<g id="node48" class="node"><title> Schools </title>
<ellipse fill="none" stroke="black" cx="450.56" cy="-738" rx="46.3894" ry="18"/>
<text text-anchor="middle" x="450.56" y="-733.8" font-family="Times,serif" font-size="14.00"> Schools </text>
</g>
<!--  Journeys_activity &#45;&gt; Schools  -->
<g id="edge46" class="edge"><title> Journeys_activity &#45;&gt; Schools </title>
<path fill="none" stroke="black" d="M1128.26,-802C976.851,-787.925 638.688,-756.489 505.746,-744.13"/>
<polygon fill="black" stroke="black" points="505.686,-740.61 495.405,-743.169 505.038,-747.58 505.686,-740.61"/>
</g>
<!--  Tube_activity  -->
<g id="node57" class="node"><title> Tube_activity </title>
<ellipse fill="none" stroke="black" cx="2399.56" cy="-738" rx="69.5032" ry="18"/>
<text text-anchor="middle" x="2399.56" y="-733.8" font-family="Times,serif" font-size="14.00"> Tube_activity </text>
</g>
<!--  Journeys_activity &#45;&gt; Tube_activity  -->
<g id="edge61" class="edge"><title> Journeys_activity &#45;&gt; Tube_activity </title>
<path fill="none" stroke="black" d="M1283.42,-804.326C1501.75,-791.547 2106.6,-756.147 2322.08,-743.535"/>
<polygon fill="black" stroke="black" points="2322.57,-747.012 2332.35,-742.934 2322.16,-740.024 2322.57,-747.012"/>
</g>
<!--  Walking_activity  -->
<g id="node63" class="node"><title> Walking_activity </title>
<ellipse fill="none" stroke="black" cx="1471.56" cy="-738" rx="82.8264" ry="18"/>
<text text-anchor="middle" x="1471.56" y="-733.8" font-family="Times,serif" font-size="14.00"> Walking_activity </text>
</g>
<!--  Journeys_activity &#45;&gt; Walking_activity  -->
<g id="edge67" class="edge"><title> Journeys_activity &#45;&gt; Walking_activity </title>
<path fill="none" stroke="black" d="M1254.6,-795.669C1299.12,-784.04 1363.78,-767.151 1410.93,-754.836"/>
<polygon fill="black" stroke="black" points="1411.92,-758.195 1420.71,-752.282 1410.15,-751.422 1411.92,-758.195"/>
</g>
<!--  Second_dose_uptake  -->
<g id="node50" class="node"><title> Second_dose_uptake </title>
<ellipse fill="none" stroke="black" cx="937.56" cy="-666" rx="97.2818" ry="18"/>
<text text-anchor="middle" x="937.56" y="-661.8" font-family="Times,serif" font-size="14.00"> Second_dose_uptake </text>
</g>
<!--  First_dose_uptake &#45;&gt; Second_dose_uptake  -->
<g id="edge49" class="edge"><title> First_dose_uptake &#45;&gt; Second_dose_uptake </title>
<path fill="none" stroke="black" d="M937.56,-719.697C937.56,-711.983 937.56,-702.712 937.56,-694.112"/>
<polygon fill="black" stroke="black" points="941.06,-694.104 937.56,-684.104 934.06,-694.104 941.06,-694.104"/>
</g>
<!--  Vaccinations_first_dose  -->
<g id="node59" class="node"><title> Vaccinations_first_dose </title>
<ellipse fill="none" stroke="black" cx="404.56" cy="-666" rx="109.368" ry="18"/>
<text text-anchor="middle" x="404.56" y="-661.8" font-family="Times,serif" font-size="14.00"> Vaccinations_first_dose </text>
</g>
<!--  First_dose_uptake &#45;&gt; Vaccinations_first_dose  -->
<g id="edge63" class="edge"><title> First_dose_uptake &#45;&gt; Vaccinations_first_dose </title>
<path fill="none" stroke="black" d="M866.506,-727.668C771.231,-715.156 601.934,-692.922 496.884,-679.125"/>
<polygon fill="black" stroke="black" points="497.293,-675.649 486.923,-677.817 496.382,-682.589 497.293,-675.649"/>
</g>
<!--  Park_visits  -->
<g id="node12" class="node"><title> Park_visits </title>
<ellipse fill="none" stroke="black" cx="1712.56" cy="-162" rx="58.5655" ry="18"/>
<text text-anchor="middle" x="1712.56" y="-157.8" font-family="Times,serif" font-size="14.00"> Park_visits </text>
</g>
<!--  Leisure_activity  -->
<g id="node13" class="node"><title> Leisure_activity </title>
<ellipse fill="none" stroke="black" cx="1811.56" cy="-90" rx="78.7279" ry="18"/>
<text text-anchor="middle" x="1811.56" y="-85.8" font-family="Times,serif" font-size="14.00"> Leisure_activity </text>
</g>
<!--  Park_visits &#45;&gt; Leisure_activity  -->
<g id="edge7" class="edge"><title> Park_visits &#45;&gt; Leisure_activity </title>
<path fill="none" stroke="black" d="M1735.02,-145.116C1748.38,-135.674 1765.52,-123.556 1780.19,-113.181"/>
<polygon fill="black" stroke="black" points="1782.35,-115.938 1788.5,-107.307 1778.31,-110.223 1782.35,-115.938"/>
</g>
<!--  Patients_in_hospital  -->
<g id="node14" class="node"><title> Patients_in_hospital </title>
<ellipse fill="none" stroke="black" cx="1008.56" cy="-234" rx="94.3795" ry="18"/>
<text text-anchor="middle" x="1008.56" y="-229.8" font-family="Times,serif" font-size="14.00"> Patients_in_hospital </text>
</g>
<!--  Patients_in_hospital &#45;&gt; Deaths_within_28_days_of_COVID  -->
<g id="edge8" class="edge"><title> Patients_in_hospital &#45;&gt; Deaths_within_28_days_of_COVID </title>
<path fill="none" stroke="black" d="M1025.26,-216.055C1033.7,-207.498 1044.09,-196.959 1053.37,-187.535"/>
<polygon fill="black" stroke="black" points="1056,-189.854 1060.53,-180.275 1051.02,-184.94 1056,-189.854"/>
</g>
<!--  Hospital_admissions  -->
<g id="node15" class="node"><title> Hospital_admissions </title>
<ellipse fill="none" stroke="black" cx="1256.56" cy="-306" rx="96.1671" ry="18"/>
<text text-anchor="middle" x="1256.56" y="-301.8" font-family="Times,serif" font-size="14.00"> Hospital_admissions </text>
</g>
<!--  Hospital_admissions &#45;&gt; Patients_in_hospital  -->
<g id="edge9" class="edge"><title> Hospital_admissions &#45;&gt; Patients_in_hospital </title>
<path fill="none" stroke="black" d="M1205.77,-290.666C1166.15,-279.482 1111,-263.914 1069.09,-252.084"/>
<polygon fill="black" stroke="black" points="1069.85,-248.663 1059.28,-249.315 1067.95,-255.4 1069.85,-248.663"/>
</g>
<!--  Patients_in_hospital_14_days_forward  -->
<g id="node16" class="node"><title> Patients_in_hospital_14_days_forward </title>
<ellipse fill="none" stroke="black" cx="1287.56" cy="-234" rx="166.681" ry="18"/>
<text text-anchor="middle" x="1287.56" y="-229.8" font-family="Times,serif" font-size="14.00"> Patients_in_hospital_14_days_forward </text>
</g>
<!--  Hospital_admissions &#45;&gt; Patients_in_hospital_14_days_forward  -->
<g id="edge10" class="edge"><title> Hospital_admissions &#45;&gt; Patients_in_hospital_14_days_forward </title>
<path fill="none" stroke="black" d="M1264.22,-287.697C1267.75,-279.728 1272.02,-270.1 1275.93,-261.264"/>
<polygon fill="black" stroke="black" points="1279.14,-262.665 1279.98,-252.104 1272.74,-259.831 1279.14,-262.665"/>
</g>
<!--  Patients_in_hospital_14_days_forward &#45;&gt; Hospital_admissions_14_days_forward  -->
<g id="edge11" class="edge"><title> Patients_in_hospital_14_days_forward &#45;&gt; Hospital_admissions_14_days_forward </title>
<path fill="none" stroke="black" d="M1323.25,-216.233C1343.89,-206.536 1370.05,-194.248 1392.03,-183.922"/>
<polygon fill="black" stroke="black" points="1393.6,-187.05 1401.16,-179.63 1390.62,-180.714 1393.6,-187.05"/>
</g>
<!--  Patients_in_hospital_14_days_forward &#45;&gt; Park_visits  -->
<g id="edge12" class="edge"><title> Patients_in_hospital_14_days_forward &#45;&gt; Park_visits </title>
<path fill="none" stroke="black" d="M1377.12,-218.758C1442.86,-208.237 1534.3,-193.465 1614.56,-180 1626.99,-177.915 1640.3,-175.637 1652.97,-173.445"/>
<polygon fill="black" stroke="black" points="1653.72,-176.868 1662.97,-171.711 1652.52,-169.971 1653.72,-176.868"/>
</g>
<!--  Patients_in_MVBs_14_days_forward  -->
<g id="node17" class="node"><title> Patients_in_MVBs_14_days_forward </title>
<ellipse fill="none" stroke="black" cx="1110.56" cy="-378" rx="161.526" ry="18"/>
<text text-anchor="middle" x="1110.56" y="-373.8" font-family="Times,serif" font-size="14.00"> Patients_in_MVBs_14_days_forward </text>
</g>
<!--  Patients_in_MVBs_14_days_forward &#45;&gt; Hospital_admissions  -->
<g id="edge14" class="edge"><title> Patients_in_MVBs_14_days_forward &#45;&gt; Hospital_admissions </title>
<path fill="none" stroke="black" d="M1145.16,-360.411C1165.82,-350.506 1192.21,-337.85 1214.13,-327.345"/>
<polygon fill="black" stroke="black" points="1215.71,-330.467 1223.21,-322.988 1212.68,-324.155 1215.71,-330.467"/>
</g>
<!--  Excess_mortality  -->
<g id="node18" class="node"><title> Excess_mortality </title>
<ellipse fill="none" stroke="black" cx="1059.56" cy="-306" rx="82.8225" ry="18"/>
<text text-anchor="middle" x="1059.56" y="-301.8" font-family="Times,serif" font-size="14.00"> Excess_mortality </text>
</g>
<!--  Patients_in_MVBs_14_days_forward &#45;&gt; Excess_mortality  -->
<g id="edge13" class="edge"><title> Patients_in_MVBs_14_days_forward &#45;&gt; Excess_mortality </title>
<path fill="none" stroke="black" d="M1097.95,-359.697C1091.96,-351.474 1084.68,-341.483 1078.08,-332.421"/>
<polygon fill="black" stroke="black" points="1080.74,-330.126 1072.02,-324.104 1075.08,-334.248 1080.74,-330.126"/>
</g>
<!--  Patients_in_MVBs  -->
<g id="node19" class="node"><title> Patients_in_MVBs </title>
<ellipse fill="none" stroke="black" cx="874.56" cy="-450" rx="89.2243" ry="18"/>
<text text-anchor="middle" x="874.56" y="-445.8" font-family="Times,serif" font-size="14.00"> Patients_in_MVBs </text>
</g>
<!--  Patients_in_MVBs &#45;&gt; Patients_in_MVBs_14_days_forward  -->
<g id="edge15" class="edge"><title> Patients_in_MVBs &#45;&gt; Patients_in_MVBs_14_days_forward </title>
<path fill="none" stroke="black" d="M922.602,-434.75C958.384,-424.137 1007.6,-409.54 1046.69,-397.944"/>
<polygon fill="black" stroke="black" points="1047.81,-401.264 1056.4,-395.065 1045.82,-394.553 1047.81,-401.264"/>
</g>
<!--  PCR_tests  -->
<g id="node20" class="node"><title> PCR_tests </title>
<ellipse fill="none" stroke="black" cx="400.56" cy="-162" rx="56.215" ry="18"/>
<text text-anchor="middle" x="400.56" y="-157.8" font-family="Times,serif" font-size="14.00"> PCR_tests </text>
</g>
<!--  PCR_tests_relative_to_capacity  -->
<g id="node21" class="node"><title> PCR_tests_relative_to_capacity </title>
<ellipse fill="none" stroke="black" cx="460.56" cy="-90" rx="139.461" ry="18"/>
<text text-anchor="middle" x="460.56" y="-85.8" font-family="Times,serif" font-size="14.00"> PCR_tests_relative_to_capacity </text>
</g>
<!--  PCR_tests &#45;&gt; PCR_tests_relative_to_capacity  -->
<g id="edge16" class="edge"><title> PCR_tests &#45;&gt; PCR_tests_relative_to_capacity </title>
<path fill="none" stroke="black" d="M414.779,-144.411C422.143,-135.82 431.28,-125.159 439.45,-115.627"/>
<polygon fill="black" stroke="black" points="442.175,-117.827 446.026,-107.956 436.86,-113.271 442.175,-117.827"/>
</g>
<!--  Pillar_1_tests_capacity  -->
<g id="node22" class="node"><title> Pillar_1_tests_capacity </title>
<ellipse fill="none" stroke="black" cx="251.56" cy="-450" rx="105.372" ry="18"/>
<text text-anchor="middle" x="251.56" y="-445.8" font-family="Times,serif" font-size="14.00"> Pillar_1_tests_capacity </text>
</g>
<!--  PCR_tests_capacity  -->
<g id="node23" class="node"><title> PCR_tests_capacity </title>
<ellipse fill="none" stroke="black" cx="442.56" cy="-378" rx="93.2142" ry="18"/>
<text text-anchor="middle" x="442.56" y="-373.8" font-family="Times,serif" font-size="14.00"> PCR_tests_capacity </text>
</g>
<!--  Pillar_1_tests_capacity &#45;&gt; PCR_tests_capacity  -->
<g id="edge17" class="edge"><title> Pillar_1_tests_capacity &#45;&gt; PCR_tests_capacity </title>
<path fill="none" stroke="black" d="M293.949,-433.465C322.708,-422.925 360.889,-408.931 391.35,-397.768"/>
<polygon fill="black" stroke="black" points="392.761,-400.978 400.946,-394.251 390.352,-394.406 392.761,-400.978"/>
</g>
<!--  Pillar_1_tests_relative_to_capacity  -->
<g id="node25" class="node"><title> Pillar_1_tests_relative_to_capacity </title>
<ellipse fill="none" stroke="black" cx="151.56" cy="-90" rx="151.619" ry="18"/>
<text text-anchor="middle" x="151.56" y="-85.8" font-family="Times,serif" font-size="14.00"> Pillar_1_tests_relative_to_capacity </text>
</g>
<!--  Pillar_1_tests_capacity &#45;&gt; Pillar_1_tests_relative_to_capacity  -->
<g id="edge19" class="edge"><title> Pillar_1_tests_capacity &#45;&gt; Pillar_1_tests_relative_to_capacity </title>
<path fill="none" stroke="black" d="M228.868,-432.025C199.364,-407.821 151.56,-360.37 151.56,-307 151.56,-307 151.56,-307 151.56,-233 151.56,-192.996 151.56,-146.653 151.56,-118.08"/>
<polygon fill="black" stroke="black" points="155.06,-118.049 151.56,-108.049 148.06,-118.049 155.06,-118.049"/>
</g>
<!--  Pillar_2_tests  -->
<g id="node26" class="node"><title> Pillar_2_tests </title>
<ellipse fill="none" stroke="black" cx="442.56" cy="-306" rx="68.3729" ry="18"/>
<text text-anchor="middle" x="442.56" y="-301.8" font-family="Times,serif" font-size="14.00"> Pillar_2_tests </text>
</g>
<!--  PCR_tests_capacity &#45;&gt; Pillar_2_tests  -->
<g id="edge20" class="edge"><title> PCR_tests_capacity &#45;&gt; Pillar_2_tests </title>
<path fill="none" stroke="black" d="M442.56,-359.697C442.56,-351.983 442.56,-342.712 442.56,-334.112"/>
<polygon fill="black" stroke="black" points="446.06,-334.104 442.56,-324.104 439.06,-334.104 446.06,-334.104"/>
</g>
<!--  PCR_tests_capacity &#45;&gt; Pillar_2_tests_capacity  -->
<g id="edge22" class="edge"><title> PCR_tests_capacity &#45;&gt; Pillar_2_tests_capacity </title>
<path fill="none" stroke="black" d="M507.964,-365.046C573.943,-352.987 675.869,-334.359 746.377,-321.472"/>
<polygon fill="black" stroke="black" points="747.336,-324.855 756.544,-319.614 746.078,-317.969 747.336,-324.855"/>
</g>
<!--  Pillar_1_tests  -->
<g id="node24" class="node"><title> Pillar_1_tests </title>
<ellipse fill="none" stroke="black" cx="251.56" cy="-162" rx="68.3729" ry="18"/>
<text text-anchor="middle" x="251.56" y="-157.8" font-family="Times,serif" font-size="14.00"> Pillar_1_tests </text>
</g>
<!--  Pillar_1_tests &#45;&gt; Pillar_1_tests_relative_to_capacity  -->
<g id="edge18" class="edge"><title> Pillar_1_tests &#45;&gt; Pillar_1_tests_relative_to_capacity </title>
<path fill="none" stroke="black" d="M228.366,-144.765C215.151,-135.514 198.388,-123.78 183.897,-113.636"/>
<polygon fill="black" stroke="black" points="185.871,-110.745 175.671,-107.878 181.856,-116.48 185.871,-110.745"/>
</g>
<!--  Pillar_2_tests_relative_to_capacity  -->
<g id="node28" class="node"><title> Pillar_2_tests_relative_to_capacity </title>
<ellipse fill="none" stroke="black" cx="586.56" cy="-234" rx="151.619" ry="18"/>
<text text-anchor="middle" x="586.56" y="-229.8" font-family="Times,serif" font-size="14.00"> Pillar_2_tests_relative_to_capacity </text>
</g>
<!--  Pillar_2_tests &#45;&gt; Pillar_2_tests_relative_to_capacity  -->
<g id="edge23" class="edge"><title> Pillar_2_tests &#45;&gt; Pillar_2_tests_relative_to_capacity </title>
<path fill="none" stroke="black" d="M473.805,-289.811C494.071,-279.96 520.76,-266.986 543.085,-256.134"/>
<polygon fill="black" stroke="black" points="544.89,-259.148 552.354,-251.628 541.83,-252.852 544.89,-259.148"/>
</g>
<!--  Tests_across_all_4_Pillars  -->
<g id="node51" class="node"><title> Tests_across_all_4_Pillars </title>
<ellipse fill="none" stroke="black" cx="298.56" cy="-234" rx="118.693" ry="18"/>
<text text-anchor="middle" x="298.56" y="-229.8" font-family="Times,serif" font-size="14.00"> Tests_across_all_4_Pillars </text>
</g>
<!--  Pillar_2_tests &#45;&gt; Tests_across_all_4_Pillars  -->
<g id="edge53" class="edge"><title> Pillar_2_tests &#45;&gt; Tests_across_all_4_Pillars </title>
<path fill="none" stroke="black" d="M411.314,-289.811C390.812,-279.845 363.737,-266.683 341.257,-255.756"/>
<polygon fill="black" stroke="black" points="342.78,-252.604 332.256,-251.38 339.719,-258.9 342.78,-252.604"/>
</g>
<!--  Positive_tests  -->
<g id="node35" class="node"><title> Positive_tests </title>
<ellipse fill="none" stroke="black" cx="825.56" cy="-234" rx="68.9544" ry="18"/>
<text text-anchor="middle" x="825.56" y="-229.8" font-family="Times,serif" font-size="14.00"> Positive_tests </text>
</g>
<!--  Pillar_2_tests_capacity &#45;&gt; Positive_tests  -->
<g id="edge34" class="edge"><title> Pillar_2_tests_capacity &#45;&gt; Positive_tests </title>
<path fill="none" stroke="black" d="M825.56,-287.697C825.56,-279.983 825.56,-270.712 825.56,-262.112"/>
<polygon fill="black" stroke="black" points="829.06,-262.104 825.56,-252.104 822.06,-262.104 829.06,-262.104"/>
</g>
<!--  Pillar_3_tests  -->
<g id="node29" class="node"><title> Pillar_3_tests </title>
<ellipse fill="none" stroke="black" cx="1358.56" cy="-378" rx="68.3729" ry="18"/>
<text text-anchor="middle" x="1358.56" y="-373.8" font-family="Times,serif" font-size="14.00"> Pillar_3_tests </text>
</g>
<!--  Pillar_3_tests &#45;&gt; Antibody_tests  -->
<g id="edge24" class="edge"><title> Pillar_3_tests &#45;&gt; Antibody_tests </title>
<path fill="none" stroke="black" d="M1384.82,-361.291C1401.11,-351.542 1422.26,-338.89 1440.04,-328.252"/>
<polygon fill="black" stroke="black" points="1442.2,-331.037 1448.99,-322.899 1438.61,-325.03 1442.2,-331.037"/>
</g>
<!--  Pillar_4_tests_relative_to_capacity  -->
<g id="node34" class="node"><title> Pillar_4_tests_relative_to_capacity </title>
<ellipse fill="none" stroke="black" cx="1596.56" cy="-378" rx="151.619" ry="18"/>
<text text-anchor="middle" x="1596.56" y="-373.8" font-family="Times,serif" font-size="14.00"> Pillar_4_tests_relative_to_capacity </text>
</g>
<!--  Pillar_3_tests_capacity &#45;&gt; Pillar_4_tests_relative_to_capacity  -->
<g id="edge30" class="edge"><title> Pillar_3_tests_capacity &#45;&gt; Pillar_4_tests_relative_to_capacity </title>
<path fill="none" stroke="black" d="M1484.42,-432.765C1504.77,-423.011 1530.87,-410.497 1552.77,-399.996"/>
<polygon fill="black" stroke="black" points="1554.36,-403.113 1561.87,-395.633 1551.34,-396.801 1554.36,-403.113"/>
</g>
<!--  Pillar_3_tests_relative_to_capacity &#45;&gt; Pillar_3_tests  -->
<g id="edge27" class="edge"><title> Pillar_3_tests_relative_to_capacity &#45;&gt; Pillar_3_tests </title>
<path fill="none" stroke="black" d="M1218.46,-432.588C1246.56,-421.842 1283.26,-407.801 1312.06,-396.788"/>
<polygon fill="black" stroke="black" points="1313.4,-400.02 1321.49,-393.179 1310.9,-393.482 1313.4,-400.02"/>
</g>
<!--  Pillar_4_tests  -->
<g id="node33" class="node"><title> Pillar_4_tests </title>
<ellipse fill="none" stroke="black" cx="1691.56" cy="-306" rx="68.3729" ry="18"/>
<text text-anchor="middle" x="1691.56" y="-301.8" font-family="Times,serif" font-size="14.00"> Pillar_4_tests </text>
</g>
<!--  Pillar_4_tests_capacity &#45;&gt; Pillar_4_tests  -->
<g id="edge29" class="edge"><title> Pillar_4_tests_capacity &#45;&gt; Pillar_4_tests </title>
<path fill="none" stroke="black" d="M1717.28,-433.168C1732.69,-424.592 1748.9,-412.35 1757.56,-396 1765.05,-381.86 1764.48,-374.427 1757.56,-360 1751.43,-347.223 1740.56,-336.552 1729.38,-328.213"/>
<polygon fill="black" stroke="black" points="1731.06,-325.119 1720.85,-322.295 1727.07,-330.871 1731.06,-325.119"/>
</g>
<!--  Pillar_4_tests_capacity &#45;&gt; Pillar_4_tests_relative_to_capacity  -->
<g id="edge32" class="edge"><title> Pillar_4_tests_capacity &#45;&gt; Pillar_4_tests_relative_to_capacity </title>
<path fill="none" stroke="black" d="M1659.47,-432.055C1648.94,-423.179 1635.89,-412.169 1624.4,-402.483"/>
<polygon fill="black" stroke="black" points="1626.66,-399.803 1616.75,-396.032 1622.14,-405.154 1626.66,-399.803"/>
</g>
<!--  Pillar_4_tests_relative_to_capacity &#45;&gt; Pillar_4_tests  -->
<g id="edge31" class="edge"><title> Pillar_4_tests_relative_to_capacity &#45;&gt; Pillar_4_tests </title>
<path fill="none" stroke="black" d="M1619.56,-360.055C1632.2,-350.74 1648.03,-339.075 1661.63,-329.057"/>
<polygon fill="black" stroke="black" points="1663.78,-331.817 1669.75,-323.068 1659.63,-326.182 1663.78,-331.817"/>
</g>
<!--  New_infentions  -->
<g id="node36" class="node"><title> New_infentions </title>
<ellipse fill="none" stroke="black" cx="824.56" cy="-162" rx="77.5897" ry="18"/>
<text text-anchor="middle" x="824.56" y="-157.8" font-family="Times,serif" font-size="14.00"> New_infentions </text>
</g>
<!--  Positive_tests &#45;&gt; New_infentions  -->
<g id="edge33" class="edge"><title> Positive_tests &#45;&gt; New_infentions </title>
<path fill="none" stroke="black" d="M825.312,-215.697C825.202,-207.983 825.07,-198.712 824.947,-190.112"/>
<polygon fill="black" stroke="black" points="828.446,-190.053 824.804,-180.104 821.447,-190.153 828.446,-190.053"/>
</g>
<!--  Positive_tests_previous_day  -->
<g id="node39" class="node"><title> Positive_tests_previous_day </title>
<ellipse fill="none" stroke="black" cx="603.56" cy="-162" rx="125.665" ry="18"/>
<text text-anchor="middle" x="603.56" y="-157.8" font-family="Times,serif" font-size="14.00"> Positive_tests_previous_day </text>
</g>
<!--  Positive_tests &#45;&gt; Positive_tests_previous_day  -->
<g id="edge37" class="edge"><title> Positive_tests &#45;&gt; Positive_tests_previous_day </title>
<path fill="none" stroke="black" d="M783.28,-219.669C749.213,-208.927 700.907,-193.695 662.954,-181.728"/>
<polygon fill="black" stroke="black" points="663.635,-178.273 653.045,-178.604 661.53,-184.949 663.635,-178.273"/>
</g>
<!--  Positive_tests_7_days_ahead  -->
<g id="node37" class="node"><title> Positive_tests_7_days_ahead </title>
<ellipse fill="none" stroke="black" cx="773.56" cy="-90" rx="128.515" ry="18"/>
<text text-anchor="middle" x="773.56" y="-85.8" font-family="Times,serif" font-size="14.00"> Positive_tests_7_days_ahead </text>
</g>
<!--  New_infentions &#45;&gt; Positive_tests_7_days_ahead  -->
<g id="edge36" class="edge"><title> New_infentions &#45;&gt; Positive_tests_7_days_ahead </title>
<path fill="none" stroke="black" d="M812.214,-144.055C806.165,-135.753 798.756,-125.584 792.049,-116.378"/>
<polygon fill="black" stroke="black" points="794.863,-114.297 786.146,-108.275 789.206,-118.419 794.863,-114.297"/>
</g>
<!--  New_infections_7_days_ahead  -->
<g id="node38" class="node"><title> New_infections_7_days_ahead </title>
<ellipse fill="none" stroke="black" cx="773.56" cy="-18" rx="136.567" ry="18"/>
<text text-anchor="middle" x="773.56" y="-13.8" font-family="Times,serif" font-size="14.00"> New_infections_7_days_ahead </text>
</g>
<!--  Positive_tests_7_days_ahead &#45;&gt; New_infections_7_days_ahead  -->
<g id="edge35" class="edge"><title> Positive_tests_7_days_ahead &#45;&gt; New_infections_7_days_ahead </title>
<path fill="none" stroke="black" d="M773.56,-71.6966C773.56,-63.9827 773.56,-54.7125 773.56,-46.1124"/>
<polygon fill="black" stroke="black" points="777.06,-46.1043 773.56,-36.1043 770.06,-46.1044 777.06,-46.1043"/>
</g>
<!--  Reinfections  -->
<g id="node40" class="node"><title> Reinfections </title>
<ellipse fill="none" stroke="black" cx="693.56" cy="-522" rx="64.8447" ry="18"/>
<text text-anchor="middle" x="693.56" y="-517.8" font-family="Times,serif" font-size="14.00"> Reinfections </text>
</g>
<!--  Reinfections &#45;&gt; Patients_in_MVBs  -->
<g id="edge40" class="edge"><title> Reinfections &#45;&gt; Patients_in_MVBs </title>
<path fill="none" stroke="black" d="M729.753,-507.003C757.307,-496.346 795.521,-481.568 825.773,-469.868"/>
<polygon fill="black" stroke="black" points="827.228,-473.058 835.292,-466.186 824.703,-466.529 827.228,-473.058"/>
</g>
<!--  Reinfections &#45;&gt; Pillar_1_tests_capacity  -->
<g id="edge41" class="edge"><title> Reinfections &#45;&gt; Pillar_1_tests_capacity </title>
<path fill="none" stroke="black" d="M646.312,-509.516C637.451,-507.541 628.243,-505.61 619.56,-504 507.453,-483.217 478.39,-484.408 365.56,-468 356.616,-466.699 347.28,-465.329 337.968,-463.953"/>
<polygon fill="black" stroke="black" points="338.298,-460.464 327.893,-462.461 337.273,-467.388 338.298,-460.464"/>
</g>
<!--  Face_masks  -->
<g id="node41" class="node"><title> Face_masks </title>
<ellipse fill="none" stroke="black" cx="437.56" cy="-450" rx="63.1209" ry="18"/>
<text text-anchor="middle" x="437.56" y="-445.8" font-family="Times,serif" font-size="14.00"> Face_masks </text>
</g>
<!--  Reinfections &#45;&gt; Face_masks  -->
<g id="edge38" class="edge"><title> Reinfections &#45;&gt; Face_masks </title>
<path fill="none" stroke="black" d="M648.968,-508.807C605.101,-496.812 538.085,-478.487 491.301,-465.695"/>
<polygon fill="black" stroke="black" points="492.209,-462.315 481.64,-463.053 490.363,-469.067 492.209,-462.315"/>
</g>
<!--  Reinfections_7_days_ahead  -->
<g id="node43" class="node"><title> Reinfections_7_days_ahead </title>
<ellipse fill="none" stroke="black" cx="642.56" cy="-450" rx="124.405" ry="18"/>
<text text-anchor="middle" x="642.56" y="-445.8" font-family="Times,serif" font-size="14.00"> Reinfections_7_days_ahead </text>
</g>
<!--  Reinfections &#45;&gt; Reinfections_7_days_ahead  -->
<g id="edge42" class="edge"><title> Reinfections &#45;&gt; Reinfections_7_days_ahead </title>
<path fill="none" stroke="black" d="M681.214,-504.055C675.165,-495.753 667.756,-485.584 661.049,-476.378"/>
<polygon fill="black" stroke="black" points="663.863,-474.297 655.146,-468.275 658.206,-478.419 663.863,-474.297"/>
</g>
<!--  Majority_COVID_19_variant  -->
<g id="node42" class="node"><title> Majority_COVID_19_variant </title>
<ellipse fill="none" stroke="black" cx="744.56" cy="-594" rx="131.365" ry="18"/>
<text text-anchor="middle" x="744.56" y="-589.8" font-family="Times,serif" font-size="14.00"> Majority_COVID_19_variant </text>
</g>
<!--  Majority_COVID_19_variant &#45;&gt; Reinfections  -->
<g id="edge39" class="edge"><title> Majority_COVID_19_variant &#45;&gt; Reinfections </title>
<path fill="none" stroke="black" d="M732.214,-576.055C726.075,-567.629 718.535,-557.28 711.749,-547.966"/>
<polygon fill="black" stroke="black" points="714.509,-545.81 705.792,-539.789 708.851,-549.932 714.509,-545.81"/>
</g>
<!--  Season  -->
<g id="node49" class="node"><title> Season </title>
<ellipse fill="none" stroke="black" cx="567.56" cy="-522" rx="43.4396" ry="18"/>
<text text-anchor="middle" x="567.56" y="-517.8" font-family="Times,serif" font-size="14.00"> Season </text>
</g>
<!--  Majority_COVID_19_variant &#45;&gt; Season  -->
<g id="edge47" class="edge"><title> Majority_COVID_19_variant &#45;&gt; Season </title>
<path fill="none" stroke="black" d="M703.507,-576.765C674.514,-565.298 635.874,-550.017 607.2,-538.677"/>
<polygon fill="black" stroke="black" points="608.473,-535.417 597.886,-534.994 605.898,-541.926 608.473,-535.417"/>
</g>
<!--  Restaurant_bookings  -->
<g id="node44" class="node"><title> Restaurant_bookings </title>
<ellipse fill="none" stroke="black" cx="1814.56" cy="-666" rx="97.2972" ry="18"/>
<text text-anchor="middle" x="1814.56" y="-661.8" font-family="Times,serif" font-size="14.00"> Restaurant_bookings </text>
</g>
<!--  Restaurant_bookings &#45;&gt; Leisure_activity  -->
<g id="edge44" class="edge"><title> Restaurant_bookings &#45;&gt; Leisure_activity </title>
<path fill="none" stroke="black" d="M1814.56,-647.951C1814.56,-621.292 1814.56,-568.115 1814.56,-523 1814.56,-523 1814.56,-523 1814.56,-233 1814.56,-192.987 1813.35,-146.646 1812.47,-118.076"/>
<polygon fill="black" stroke="black" points="1815.97,-117.93 1812.15,-108.047 1808.97,-118.153 1815.97,-117.93"/>
</g>
<!--  Flight_activity  -->
<g id="node45" class="node"><title> Flight_activity </title>
<ellipse fill="none" stroke="black" cx="1915.56" cy="-594" rx="72.9702" ry="18"/>
<text text-anchor="middle" x="1915.56" y="-589.8" font-family="Times,serif" font-size="14.00"> Flight_activity </text>
</g>
<!--  Restaurant_bookings &#45;&gt; Flight_activity  -->
<g id="edge43" class="edge"><title> Restaurant_bookings &#45;&gt; Flight_activity </title>
<path fill="none" stroke="black" d="M1838.5,-648.411C1852.05,-639.016 1869.18,-627.146 1883.84,-616.983"/>
<polygon fill="black" stroke="black" points="1885.92,-619.801 1892.14,-611.228 1881.93,-614.048 1885.92,-619.801"/>
</g>
<!--  Retail_and_recreation_activity  -->
<g id="node46" class="node"><title> Retail_and_recreation_activity </title>
<ellipse fill="none" stroke="black" cx="2141.56" cy="-594" rx="134.849" ry="18"/>
<text text-anchor="middle" x="2141.56" y="-589.8" font-family="Times,serif" font-size="14.00"> Retail_and_recreation_activity </text>
</g>
<!--  Grocery_and_pharmacy_visits  -->
<g id="node47" class="node"><title> Grocery_and_pharmacy_visits </title>
<ellipse fill="none" stroke="black" cx="2141.56" cy="-522" rx="134.277" ry="18"/>
<text text-anchor="middle" x="2141.56" y="-517.8" font-family="Times,serif" font-size="14.00"> Grocery_and_pharmacy_visits </text>
</g>
<!--  Retail_and_recreation_activity &#45;&gt; Grocery_and_pharmacy_visits  -->
<g id="edge45" class="edge"><title> Retail_and_recreation_activity &#45;&gt; Grocery_and_pharmacy_visits </title>
<path fill="none" stroke="black" d="M2141.56,-575.697C2141.56,-567.983 2141.56,-558.712 2141.56,-550.112"/>
<polygon fill="black" stroke="black" points="2145.06,-550.104 2141.56,-540.104 2138.06,-550.104 2145.06,-550.104"/>
</g>
<!--  Schools &#45;&gt; Tests_across_all_4_Pillars  -->
<g id="edge54" class="edge"><title> Schools &#45;&gt; Tests_across_all_4_Pillars </title>
<path fill="none" stroke="black" d="M404.055,-737.767C311.607,-736.612 113.56,-719.597 113.56,-595 113.56,-595 113.56,-595 113.56,-377 113.56,-313.405 183.202,-274.392 237.029,-253.737"/>
<polygon fill="black" stroke="black" points="238.374,-256.971 246.534,-250.214 235.941,-250.407 238.374,-256.971"/>
</g>
<!--  Second_dose_uptake &#45;&gt; Cumulative_COVID_19_deaths_on_certificate  -->
<g id="edge48" class="edge"><title> Second_dose_uptake &#45;&gt; Cumulative_COVID_19_deaths_on_certificate </title>
<path fill="none" stroke="black" d="M972.505,-649.116C994.032,-639.331 1021.88,-626.67 1045.24,-616.055"/>
<polygon fill="black" stroke="black" points="1046.95,-619.122 1054.61,-611.797 1044.05,-612.749 1046.95,-619.122"/>
</g>
<!--  Second_dose_uptake &#45;&gt; Majority_COVID_19_variant  -->
<g id="edge50" class="edge"><title> Second_dose_uptake &#45;&gt; Majority_COVID_19_variant </title>
<path fill="none" stroke="black" d="M895.205,-649.638C866.769,-639.325 829.059,-625.647 798.482,-614.557"/>
<polygon fill="black" stroke="black" points="799.42,-611.175 788.826,-611.055 797.034,-617.755 799.42,-611.175"/>
</g>
<!--  Third_dose_uptake  -->
<g id="node52" class="node"><title> Third_dose_uptake </title>
<ellipse fill="none" stroke="black" cx="1416.56" cy="-594" rx="90.3371" ry="18"/>
<text text-anchor="middle" x="1416.56" y="-589.8" font-family="Times,serif" font-size="14.00"> Third_dose_uptake </text>
</g>
<!--  Second_dose_uptake &#45;&gt; Third_dose_uptake  -->
<g id="edge56" class="edge"><title> Second_dose_uptake &#45;&gt; Third_dose_uptake </title>
<path fill="none" stroke="black" d="M1011.35,-654.216C1099.13,-641.389 1245.14,-620.051 1335.85,-606.795"/>
<polygon fill="black" stroke="black" points="1336.42,-610.249 1345.81,-605.34 1335.41,-603.323 1336.42,-610.249"/>
</g>
<!--  Vaccinations_second_dose  -->
<g id="node60" class="node"><title> Vaccinations_second_dose </title>
<ellipse fill="none" stroke="black" cx="474.56" cy="-594" rx="120.392" ry="18"/>
<text text-anchor="middle" x="474.56" y="-589.8" font-family="Times,serif" font-size="14.00"> Vaccinations_second_dose </text>
</g>
<!--  Second_dose_uptake &#45;&gt; Vaccinations_second_dose  -->
<g id="edge64" class="edge"><title> Second_dose_uptake &#45;&gt; Vaccinations_second_dose </title>
<path fill="none" stroke="black" d="M864.706,-653.985C783.909,-641.77 653.433,-622.044 565.874,-608.806"/>
<polygon fill="black" stroke="black" points="566.358,-605.339 555.947,-607.305 565.311,-612.26 566.358,-605.339"/>
</g>
<!--  Tests_across_all_4_Pillars &#45;&gt; PCR_tests  -->
<g id="edge51" class="edge"><title> Tests_across_all_4_Pillars &#45;&gt; PCR_tests </title>
<path fill="none" stroke="black" d="M322.991,-216.233C336.885,-206.699 354.428,-194.659 369.315,-184.443"/>
<polygon fill="black" stroke="black" points="371.461,-187.215 377.725,-178.671 367.5,-181.443 371.461,-187.215"/>
</g>
<!--  Tests_across_all_4_Pillars &#45;&gt; Pillar_1_tests  -->
<g id="edge52" class="edge"><title> Tests_across_all_4_Pillars &#45;&gt; Pillar_1_tests </title>
<path fill="none" stroke="black" d="M287.182,-216.055C281.582,-207.715 274.718,-197.491 268.514,-188.252"/>
<polygon fill="black" stroke="black" points="271.312,-186.14 262.832,-179.789 265.501,-190.042 271.312,-186.14"/>
</g>
<!--  All_three_doses_uptake  -->
<g id="node53" class="node"><title> All_three_doses_uptake </title>
<ellipse fill="none" stroke="black" cx="1655.56" cy="-522" rx="109.374" ry="18"/>
<text text-anchor="middle" x="1655.56" y="-517.8" font-family="Times,serif" font-size="14.00"> All_three_doses_uptake </text>
</g>
<!--  Third_dose_uptake &#45;&gt; All_three_doses_uptake  -->
<g id="edge55" class="edge"><title> Third_dose_uptake &#45;&gt; All_three_doses_uptake </title>
<path fill="none" stroke="black" d="M1465.21,-578.75C1502.66,-567.782 1554.64,-552.559 1594.82,-540.791"/>
<polygon fill="black" stroke="black" points="1595.89,-544.125 1604.5,-537.955 1593.92,-537.407 1595.89,-544.125"/>
</g>
<!--  Vaccinations_third_dose  -->
<g id="node61" class="node"><title> Vaccinations_third_dose </title>
<ellipse fill="none" stroke="black" cx="1416.56" cy="-522" rx="111.741" ry="18"/>
<text text-anchor="middle" x="1416.56" y="-517.8" font-family="Times,serif" font-size="14.00"> Vaccinations_third_dose </text>
</g>
<!--  Third_dose_uptake &#45;&gt; Vaccinations_third_dose  -->
<g id="edge65" class="edge"><title> Third_dose_uptake &#45;&gt; Vaccinations_third_dose </title>
<path fill="none" stroke="black" d="M1416.56,-575.697C1416.56,-567.983 1416.56,-558.712 1416.56,-550.112"/>
<polygon fill="black" stroke="black" points="1420.06,-550.104 1416.56,-540.104 1413.06,-550.104 1420.06,-550.104"/>
</g>
<!--  Transit_stations_activity  -->
<g id="node54" class="node"><title> Transit_stations_activity </title>
<ellipse fill="none" stroke="black" cx="2399.56" cy="-666" rx="111.19" ry="18"/>
<text text-anchor="middle" x="2399.56" y="-661.8" font-family="Times,serif" font-size="14.00"> Transit_stations_activity </text>
</g>
<!--  Transit_stations_activity &#45;&gt; Retail_and_recreation_activity  -->
<g id="edge58" class="edge"><title> Transit_stations_activity &#45;&gt; Retail_and_recreation_activity </title>
<path fill="none" stroke="black" d="M2345.16,-650.24C2305.11,-639.374 2250.44,-624.542 2207.84,-612.983"/>
<polygon fill="black" stroke="black" points="2208.68,-609.586 2198.12,-610.345 2206.85,-616.341 2208.68,-609.586"/>
</g>
<!--  Homeworking_activity  -->
<g id="node55" class="node"><title> Homeworking_activity </title>
<ellipse fill="none" stroke="black" cx="2399.56" cy="-594" rx="105.382" ry="18"/>
<text text-anchor="middle" x="2399.56" y="-589.8" font-family="Times,serif" font-size="14.00"> Homeworking_activity </text>
</g>
<!--  Transit_stations_activity &#45;&gt; Homeworking_activity  -->
<g id="edge57" class="edge"><title> Transit_stations_activity &#45;&gt; Homeworking_activity </title>
<path fill="none" stroke="black" d="M2399.56,-647.697C2399.56,-639.983 2399.56,-630.712 2399.56,-622.112"/>
<polygon fill="black" stroke="black" points="2403.06,-622.104 2399.56,-612.104 2396.06,-622.104 2403.06,-622.104"/>
</g>
<!--  Transportation_activity  -->
<g id="node56" class="node"><title> Transportation_activity </title>
<ellipse fill="none" stroke="black" cx="2629.56" cy="-594" rx="106.52" ry="18"/>
<text text-anchor="middle" x="2629.56" y="-589.8" font-family="Times,serif" font-size="14.00"> Transportation_activity </text>
</g>
<!--  Transit_stations_activity &#45;&gt; Transportation_activity  -->
<g id="edge59" class="edge"><title> Transit_stations_activity &#45;&gt; Transportation_activity </title>
<path fill="none" stroke="black" d="M2449.47,-649.811C2485,-638.996 2532.9,-624.418 2570.37,-613.015"/>
<polygon fill="black" stroke="black" points="2571.6,-616.299 2580.15,-610.039 2569.56,-609.602 2571.6,-616.299"/>
</g>
<!--  Work_and_school_activity  -->
<g id="node64" class="node"><title> Work_and_school_activity </title>
<ellipse fill="none" stroke="black" cx="2874.56" cy="-594" rx="120.415" ry="18"/>
<text text-anchor="middle" x="2874.56" y="-589.8" font-family="Times,serif" font-size="14.00"> Work_and_school_activity </text>
</g>
<!--  Transit_stations_activity &#45;&gt; Work_and_school_activity  -->
<g id="edge69" class="edge"><title> Transit_stations_activity &#45;&gt; Work_and_school_activity </title>
<path fill="none" stroke="black" d="M2478.8,-653.323C2562.29,-641.019 2693.67,-621.658 2781.9,-608.655"/>
<polygon fill="black" stroke="black" points="2782.52,-612.101 2791.9,-607.181 2781.5,-605.176 2782.52,-612.101"/>
</g>
<!--  Workplace_activity  -->
<g id="node65" class="node"><title> Workplace_activity </title>
<ellipse fill="none" stroke="black" cx="2399.56" cy="-522" rx="92.0354" ry="18"/>
<text text-anchor="middle" x="2399.56" y="-517.8" font-family="Times,serif" font-size="14.00"> Workplace_activity </text>
</g>
<!--  Homeworking_activity &#45;&gt; Workplace_activity  -->
<g id="edge70" class="edge"><title> Homeworking_activity &#45;&gt; Workplace_activity </title>
<path fill="none" stroke="black" d="M2399.56,-575.697C2399.56,-567.983 2399.56,-558.712 2399.56,-550.112"/>
<polygon fill="black" stroke="black" points="2403.06,-550.104 2399.56,-540.104 2396.06,-550.104 2403.06,-550.104"/>
</g>
<!--  Tube_activity &#45;&gt; Transit_stations_activity  -->
<g id="edge62" class="edge"><title> Tube_activity &#45;&gt; Transit_stations_activity </title>
<path fill="none" stroke="black" d="M2399.56,-719.697C2399.56,-711.983 2399.56,-702.712 2399.56,-694.112"/>
<polygon fill="black" stroke="black" points="2403.06,-694.104 2399.56,-684.104 2396.06,-694.104 2403.06,-694.104"/>
</g>
<!--  Bus_activity  -->
<g id="node58" class="node"><title> Bus_activity </title>
<ellipse fill="none" stroke="black" cx="2593.56" cy="-666" rx="64.8661" ry="18"/>
<text text-anchor="middle" x="2593.56" y="-661.8" font-family="Times,serif" font-size="14.00"> Bus_activity </text>
</g>
<!--  Tube_activity &#45;&gt; Bus_activity  -->
<g id="edge60" class="edge"><title> Tube_activity &#45;&gt; Bus_activity </title>
<path fill="none" stroke="black" d="M2438.35,-723.003C2469.35,-711.818 2512.93,-696.093 2546.02,-684.152"/>
<polygon fill="black" stroke="black" points="2547.28,-687.421 2555.5,-680.734 2544.9,-680.836 2547.28,-687.421"/>
</g>
<!--  Vaccinations_total  -->
<g id="node62" class="node"><title> Vaccinations_total </title>
<ellipse fill="none" stroke="black" cx="247.56" cy="-594" rx="88.0403" ry="18"/>
<text text-anchor="middle" x="247.56" y="-589.8" font-family="Times,serif" font-size="14.00"> Vaccinations_total </text>
</g>
<!--  Vaccinations_first_dose &#45;&gt; Vaccinations_total  -->
<g id="edge66" class="edge"><title> Vaccinations_first_dose &#45;&gt; Vaccinations_total </title>
<path fill="none" stroke="black" d="M368.541,-648.941C345.763,-638.785 316.157,-625.585 291.934,-614.785"/>
<polygon fill="black" stroke="black" points="293.159,-611.499 282.6,-610.623 290.308,-617.892 293.159,-611.499"/>
</g>
<!--  Walking_activity &#45;&gt; Restaurant_bookings  -->
<g id="edge68" class="edge"><title> Walking_activity &#45;&gt; Restaurant_bookings </title>
<path fill="none" stroke="black" d="M1529.74,-725.125C1588.25,-713.185 1678.61,-694.744 1741.82,-681.844"/>
<polygon fill="black" stroke="black" points="1742.63,-685.252 1751.72,-679.823 1741.23,-678.394 1742.63,-685.252"/>
</g>
</g>
</svg>

