<?xml version="1.0" encoding="UTF-8" standalone="no"?>
<!DOCTYPE svg PUBLIC "-//W3C//DTD SVG 1.1//EN"
 "http://www.w3.org/Graphics/SVG/1.1/DTD/svg11.dtd">
<!-- Generated by graphviz version 2.38.0 (20140413.2041)
 -->
<!-- Title: g Pages: 1 -->
<svg width="1375pt" height="548pt"
 viewBox="0.00 0.00 1375.30 548.00" xmlns="http://www.w3.org/2000/svg" xmlns:xlink="http://www.w3.org/1999/xlink">
<g id="graph0" class="graph" transform="scale(1 1) rotate(0) translate(4 544)">
<title>g</title>
<polygon fill="white" stroke="none" points="-4,4 -4,-544 1371.3,-544 1371.3,4 -4,4"/>
<!--  Deaths_with_COVID_on_certificate  -->
<g id="node1" class="node"><title> Deaths_with_COVID_on_certificate </title>
<ellipse fill="none" stroke="black" cx="620.457" cy="-378" rx="157.965" ry="18"/>
<text text-anchor="middle" x="620.457" y="-373.8" font-family="Times,serif" font-size="14.00"> Deaths_with_COVID_on_certificate </text>
</g>
<!--  Leisure_activity  -->
<g id="node2" class="node"><title> Leisure_activity </title>
<ellipse fill="none" stroke="black" cx="697.457" cy="-306" rx="78.7279" ry="18"/>
<text text-anchor="middle" x="697.457" y="-301.8" font-family="Times,serif" font-size="14.00"> Leisure_activity </text>
</g>
<!--  Deaths_with_COVID_on_certificate &#45;&gt; Leisure_activity  -->
<g id="edge1" class="edge"><title> Deaths_with_COVID_on_certificate &#45;&gt; Leisure_activity </title>
<path fill="none" stroke="black" d="M639.097,-360.055C648.91,-351.134 661.095,-340.057 671.788,-330.336"/>
<polygon fill="black" stroke="black" points="674.21,-332.864 679.255,-323.547 669.501,-327.684 674.21,-332.864"/>
</g>
<!--  Patients_in_MVBs  -->
<g id="node8" class="node"><title> Patients_in_MVBs </title>
<ellipse fill="none" stroke="black" cx="511.457" cy="-306" rx="89.2243" ry="18"/>
<text text-anchor="middle" x="511.457" y="-301.8" font-family="Times,serif" font-size="14.00"> Patients_in_MVBs </text>
</g>
<!--  Deaths_with_COVID_on_certificate &#45;&gt; Patients_in_MVBs  -->
<g id="edge8" class="edge"><title> Deaths_with_COVID_on_certificate &#45;&gt; Patients_in_MVBs </title>
<path fill="none" stroke="black" d="M594.349,-360.233C579.682,-350.814 561.209,-338.951 545.427,-328.815"/>
<polygon fill="black" stroke="black" points="547.282,-325.847 536.977,-323.388 543.5,-331.737 547.282,-325.847"/>
</g>
<!--  Lockdown  -->
<g id="node3" class="node"><title> Lockdown </title>
<ellipse fill="none" stroke="black" cx="379.457" cy="-234" rx="57.3301" ry="18"/>
<text text-anchor="middle" x="379.457" y="-229.8" font-family="Times,serif" font-size="14.00"> Lockdown </text>
</g>
<!--  Face_masks  -->
<g id="node4" class="node"><title> Face_masks </title>
<ellipse fill="none" stroke="black" cx="322.457" cy="-90" rx="63.1209" ry="18"/>
<text text-anchor="middle" x="322.457" y="-85.8" font-family="Times,serif" font-size="14.00"> Face_masks </text>
</g>
<!--  Lockdown &#45;&gt; Face_masks  -->
<g id="edge2" class="edge"><title> Lockdown &#45;&gt; Face_masks </title>
<path fill="none" stroke="black" d="M372.582,-215.871C362.782,-191.457 344.706,-146.426 333.149,-117.635"/>
<polygon fill="black" stroke="black" points="336.331,-116.166 329.357,-108.189 329.834,-118.773 336.331,-116.166"/>
</g>
<!--  Majority_COVID_19_variant  -->
<g id="node5" class="node"><title> Majority_COVID_19_variant </title>
<ellipse fill="none" stroke="black" cx="690.457" cy="-162" rx="131.365" ry="18"/>
<text text-anchor="middle" x="690.457" y="-157.8" font-family="Times,serif" font-size="14.00"> Majority_COVID_19_variant </text>
</g>
<!--  Lockdown &#45;&gt; Majority_COVID_19_variant  -->
<g id="edge5" class="edge"><title> Lockdown &#45;&gt; Majority_COVID_19_variant </title>
<path fill="none" stroke="black" d="M422.001,-221.782C429.791,-219.802 437.858,-217.8 445.457,-216 500.51,-202.961 562.83,-189.497 610.84,-179.402"/>
<polygon fill="black" stroke="black" points="611.791,-182.779 620.859,-177.301 610.354,-175.928 611.791,-182.779"/>
</g>
<!--  Transportation_activity  -->
<g id="node16" class="node"><title> Transportation_activity </title>
<ellipse fill="none" stroke="black" cx="192.457" cy="-162" rx="106.52" ry="18"/>
<text text-anchor="middle" x="192.457" y="-157.8" font-family="Times,serif" font-size="14.00"> Transportation_activity </text>
</g>
<!--  Lockdown &#45;&gt; Transportation_activity  -->
<g id="edge20" class="edge"><title> Lockdown &#45;&gt; Transportation_activity </title>
<path fill="none" stroke="black" d="M343.844,-219.669C315.514,-209.064 275.494,-194.083 243.716,-182.188"/>
<polygon fill="black" stroke="black" points="244.734,-178.831 234.141,-178.604 242.279,-185.387 244.734,-178.831"/>
</g>
<!--  Majority_COVID_19_variant &#45;&gt; Face_masks  -->
<g id="edge3" class="edge"><title> Majority_COVID_19_variant &#45;&gt; Face_masks </title>
<path fill="none" stroke="black" d="M609.825,-147.787C550.179,-137.716 467.045,-123.056 394.457,-108 389.399,-106.951 384.154,-105.812 378.904,-104.637"/>
<polygon fill="black" stroke="black" points="379.379,-101.156 368.852,-102.348 377.825,-107.981 379.379,-101.156"/>
</g>
<!--  Hospital_admissions  -->
<g id="node6" class="node"><title> Hospital_admissions </title>
<ellipse fill="none" stroke="black" cx="1015.46" cy="-90" rx="96.1671" ry="18"/>
<text text-anchor="middle" x="1015.46" y="-85.8" font-family="Times,serif" font-size="14.00"> Hospital_admissions </text>
</g>
<!--  Majority_COVID_19_variant &#45;&gt; Hospital_admissions  -->
<g id="edge4" class="edge"><title> Majority_COVID_19_variant &#45;&gt; Hospital_admissions </title>
<path fill="none" stroke="black" d="M757.798,-146.496C812.408,-134.734 889.157,-118.203 944.671,-106.246"/>
<polygon fill="black" stroke="black" points="945.741,-109.596 954.78,-104.069 944.267,-102.753 945.741,-109.596"/>
</g>
<!--  Positive_tests  -->
<g id="node10" class="node"><title> Positive_tests </title>
<ellipse fill="none" stroke="black" cx="832.457" cy="-90" rx="68.9544" ry="18"/>
<text text-anchor="middle" x="832.457" y="-85.8" font-family="Times,serif" font-size="14.00"> Positive_tests </text>
</g>
<!--  Majority_COVID_19_variant &#45;&gt; Positive_tests  -->
<g id="edge11" class="edge"><title> Majority_COVID_19_variant &#45;&gt; Positive_tests </title>
<path fill="none" stroke="black" d="M723.75,-144.588C744.173,-134.521 770.459,-121.563 792.067,-110.911"/>
<polygon fill="black" stroke="black" points="793.896,-113.911 801.318,-106.35 790.801,-107.633 793.896,-113.911"/>
</g>
<!--  Reinfections  -->
<g id="node12" class="node"><title> Reinfections </title>
<ellipse fill="none" stroke="black" cx="468.457" cy="-90" rx="64.8447" ry="18"/>
<text text-anchor="middle" x="468.457" y="-85.8" font-family="Times,serif" font-size="14.00"> Reinfections </text>
</g>
<!--  Majority_COVID_19_variant &#45;&gt; Reinfections  -->
<g id="edge13" class="edge"><title> Majority_COVID_19_variant &#45;&gt; Reinfections </title>
<path fill="none" stroke="black" d="M640.636,-145.291C604.529,-133.905 555.862,-118.56 519.48,-107.088"/>
<polygon fill="black" stroke="black" points="520.155,-103.631 509.565,-103.962 518.05,-110.307 520.155,-103.631"/>
</g>
<!--  Second_dose_uptake  -->
<g id="node14" class="node"><title> Second_dose_uptake </title>
<ellipse fill="none" stroke="black" cx="648.457" cy="-90" rx="97.2818" ry="18"/>
<text text-anchor="middle" x="648.457" y="-85.8" font-family="Times,serif" font-size="14.00"> Second_dose_uptake </text>
</g>
<!--  Majority_COVID_19_variant &#45;&gt; Second_dose_uptake  -->
<g id="edge17" class="edge"><title> Majority_COVID_19_variant &#45;&gt; Second_dose_uptake </title>
<path fill="none" stroke="black" d="M680.075,-143.697C675.193,-135.559 669.271,-125.689 663.878,-116.701"/>
<polygon fill="black" stroke="black" points="666.866,-114.879 658.72,-108.104 660.864,-118.48 666.866,-114.879"/>
</g>
<!--  Tests_across_all_4_Pillars  -->
<g id="node15" class="node"><title> Tests_across_all_4_Pillars </title>
<ellipse fill="none" stroke="black" cx="1248.46" cy="-90" rx="118.693" ry="18"/>
<text text-anchor="middle" x="1248.46" y="-85.8" font-family="Times,serif" font-size="14.00"> Tests_across_all_4_Pillars </text>
</g>
<!--  Majority_COVID_19_variant &#45;&gt; Tests_across_all_4_Pillars  -->
<g id="edge18" class="edge"><title> Majority_COVID_19_variant &#45;&gt; Tests_across_all_4_Pillars </title>
<path fill="none" stroke="black" d="M785.706,-149.521C872.862,-138.954 1005.37,-122.734 1120.46,-108 1130.93,-106.66 1141.88,-105.237 1152.77,-103.808"/>
<polygon fill="black" stroke="black" points="1153.29,-107.27 1162.75,-102.496 1152.38,-100.33 1153.29,-107.27"/>
</g>
<!--  Patients_in_hospital  -->
<g id="node7" class="node"><title> Patients_in_hospital </title>
<ellipse fill="none" stroke="black" cx="928.457" cy="-450" rx="94.3795" ry="18"/>
<text text-anchor="middle" x="928.457" y="-445.8" font-family="Times,serif" font-size="14.00"> Patients_in_hospital </text>
</g>
<!--  Patients_in_hospital &#45;&gt; Deaths_with_COVID_on_certificate  -->
<g id="edge6" class="edge"><title> Patients_in_hospital &#45;&gt; Deaths_with_COVID_on_certificate </title>
<path fill="none" stroke="black" d="M870.163,-435.751C821.319,-424.65 751.195,-408.713 697.686,-396.552"/>
<polygon fill="black" stroke="black" points="698.424,-393.131 687.897,-394.327 696.873,-399.956 698.424,-393.131"/>
</g>
<!--  Patients_in_hospital &#45;&gt; Hospital_admissions  -->
<g id="edge7" class="edge"><title> Patients_in_hospital &#45;&gt; Hospital_admissions </title>
<path fill="none" stroke="black" d="M942.03,-431.755C960.817,-406.103 992.457,-355.674 992.457,-307 992.457,-307 992.457,-307 992.457,-233 992.457,-192.696 1001.6,-146.776 1008.35,-118.337"/>
<polygon fill="black" stroke="black" points="1011.82,-118.888 1010.8,-108.342 1005.02,-117.222 1011.82,-118.888"/>
</g>
<!--  Patients_in_MVBs &#45;&gt; Lockdown  -->
<g id="edge10" class="edge"><title> Patients_in_MVBs &#45;&gt; Lockdown </title>
<path fill="none" stroke="black" d="M481.174,-288.941C461.9,-278.72 436.811,-265.415 416.373,-254.577"/>
<polygon fill="black" stroke="black" points="417.822,-251.383 407.348,-249.79 414.543,-257.568 417.822,-251.383"/>
</g>
<!--  Excess_mortality  -->
<g id="node9" class="node"><title> Excess_mortality </title>
<ellipse fill="none" stroke="black" cx="537.457" cy="-234" rx="82.8225" ry="18"/>
<text text-anchor="middle" x="537.457" y="-229.8" font-family="Times,serif" font-size="14.00"> Excess_mortality </text>
</g>
<!--  Patients_in_MVBs &#45;&gt; Excess_mortality  -->
<g id="edge9" class="edge"><title> Patients_in_MVBs &#45;&gt; Excess_mortality </title>
<path fill="none" stroke="black" d="M517.884,-287.697C520.813,-279.813 524.344,-270.304 527.597,-261.546"/>
<polygon fill="black" stroke="black" points="530.903,-262.697 531.104,-252.104 524.341,-260.26 530.903,-262.697"/>
</g>
<!--  New_infections  -->
<g id="node11" class="node"><title> New_infections </title>
<ellipse fill="none" stroke="black" cx="832.457" cy="-18" rx="77.0062" ry="18"/>
<text text-anchor="middle" x="832.457" y="-13.8" font-family="Times,serif" font-size="14.00"> New_infections </text>
</g>
<!--  Positive_tests &#45;&gt; New_infections  -->
<g id="edge12" class="edge"><title> Positive_tests &#45;&gt; New_infections </title>
<path fill="none" stroke="black" d="M832.457,-71.6966C832.457,-63.9827 832.457,-54.7125 832.457,-46.1124"/>
<polygon fill="black" stroke="black" points="835.958,-46.1043 832.457,-36.1043 828.958,-46.1044 835.958,-46.1043"/>
</g>
<!--  Season  -->
<g id="node13" class="node"><title> Season </title>
<ellipse fill="none" stroke="black" cx="867.457" cy="-522" rx="43.4396" ry="18"/>
<text text-anchor="middle" x="867.457" y="-517.8" font-family="Times,serif" font-size="14.00"> Season </text>
</g>
<!--  Season &#45;&gt; Lockdown  -->
<g id="edge14" class="edge"><title> Season &#45;&gt; Lockdown </title>
<path fill="none" stroke="black" d="M824.762,-518.512C743.829,-511.742 566.124,-486.823 453.457,-396 411.169,-361.911 392.012,-298.254 384.195,-262.035"/>
<polygon fill="black" stroke="black" points="387.612,-261.274 382.201,-252.165 380.751,-262.661 387.612,-261.274"/>
</g>
<!--  Season &#45;&gt; Majority_COVID_19_variant  -->
<g id="edge15" class="edge"><title> Season &#45;&gt; Majority_COVID_19_variant </title>
<path fill="none" stroke="black" d="M851.676,-505.155C842.69,-495.259 831.961,-481.807 825.457,-468 808.221,-431.409 806.457,-419.447 806.457,-379 806.457,-379 806.457,-379 806.457,-305 806.457,-253.498 760.126,-210.377 726.025,-185.614"/>
<polygon fill="black" stroke="black" points="727.846,-182.616 717.654,-179.72 723.816,-188.339 727.846,-182.616"/>
</g>
<!--  Season &#45;&gt; Patients_in_hospital  -->
<g id="edge16" class="edge"><title> Season &#45;&gt; Patients_in_hospital </title>
<path fill="none" stroke="black" d="M881.605,-504.765C889.084,-496.182 898.426,-485.462 906.795,-475.858"/>
<polygon fill="black" stroke="black" points="909.604,-477.962 913.535,-468.124 904.327,-473.364 909.604,-477.962"/>
</g>
<!--  Season &#45;&gt; Tests_across_all_4_Pillars  -->
<g id="edge19" class="edge"><title> Season &#45;&gt; Tests_across_all_4_Pillars </title>
<path fill="none" stroke="black" d="M909.11,-516.922C945.324,-511.384 997.216,-498.388 1031.46,-468 1064.03,-439.092 1072.46,-422.551 1072.46,-379 1072.46,-379 1072.46,-379 1072.46,-233 1072.46,-171.092 1139.23,-131.574 1190.52,-110.351"/>
<polygon fill="black" stroke="black" points="1191.91,-113.564 1199.9,-106.6 1189.31,-107.065 1191.91,-113.564"/>
</g>
<!--  Work_and_school_activity  -->
<g id="node17" class="node"><title> Work_and_school_activity </title>
<ellipse fill="none" stroke="black" cx="120.457" cy="-90" rx="120.415" ry="18"/>
<text text-anchor="middle" x="120.457" y="-85.8" font-family="Times,serif" font-size="14.00"> Work_and_school_activity </text>
</g>
<!--  Transportation_activity &#45;&gt; Work_and_school_activity  -->
<g id="edge21" class="edge"><title> Transportation_activity &#45;&gt; Work_and_school_activity </title>
<path fill="none" stroke="black" d="M175.028,-144.055C166.074,-135.349 155.008,-124.591 145.188,-115.043"/>
<polygon fill="black" stroke="black" points="147.585,-112.493 137.976,-108.032 142.706,-117.512 147.585,-112.493"/>
</g>
</g>
</svg>

