<?xml version="1.0" encoding="UTF-8" standalone="no"?>
<!DOCTYPE svg PUBLIC "-//W3C//DTD SVG 1.1//EN"
 "http://www.w3.org/Graphics/SVG/1.1/DTD/svg11.dtd">
<!-- Generated by graphviz version 2.38.0 (20140413.2041)
 -->
<!-- Title: g Pages: 1 -->
<svg width="3209pt" height="1052pt"
 viewBox="0.00 0.00 3209.02 1052.00" xmlns="http://www.w3.org/2000/svg" xmlns:xlink="http://www.w3.org/1999/xlink">
<g id="graph0" class="graph" transform="scale(1 1) rotate(0) translate(4 1048)">
<title>g</title>
<polygon fill="white" stroke="none" points="-4,4 -4,-1048 3205.02,-1048 3205.02,4 -4,4"/>
<!--  Antibody_tests  -->
<g id="node1" class="node"><title> Antibody_tests </title>
<ellipse fill="none" stroke="black" cx="2821.56" cy="-522" rx="74.1798" ry="18"/>
<text text-anchor="middle" x="2821.56" y="-517.8" font-family="Times,serif" font-size="14.00"> Antibody_tests </text>
</g>
<!--  Antibody_tests_relative_to_capacity  -->
<g id="node2" class="node"><title> Antibody_tests_relative_to_capacity </title>
<ellipse fill="none" stroke="black" cx="3043.56" cy="-450" rx="157.426" ry="18"/>
<text text-anchor="middle" x="3043.56" y="-445.8" font-family="Times,serif" font-size="14.00"> Antibody_tests_relative_to_capacity </text>
</g>
<!--  Antibody_tests &#45;&gt; Antibody_tests_relative_to_capacity  -->
<g id="edge1" class="edge"><title> Antibody_tests &#45;&gt; Antibody_tests_relative_to_capacity </title>
<path fill="none" stroke="black" d="M2864.89,-507.337C2898.48,-496.745 2945.44,-481.937 2982.79,-470.161"/>
<polygon fill="black" stroke="black" points="2984.07,-473.427 2992.56,-467.082 2981.97,-466.751 2984.07,-473.427"/>
</g>
<!--  Pillar_3_tests  -->
<g id="node29" class="node"><title> Pillar_3_tests </title>
<ellipse fill="none" stroke="black" cx="2799.56" cy="-450" rx="68.3729" ry="18"/>
<text text-anchor="middle" x="2799.56" y="-445.8" font-family="Times,serif" font-size="14.00"> Pillar_3_tests </text>
</g>
<!--  Antibody_tests &#45;&gt; Pillar_3_tests  -->
<g id="edge22" class="edge"><title> Antibody_tests &#45;&gt; Pillar_3_tests </title>
<path fill="none" stroke="black" d="M2816.12,-503.697C2813.67,-495.898 2810.72,-486.509 2807.99,-477.829"/>
<polygon fill="black" stroke="black" points="2811.27,-476.595 2804.94,-468.104 2804.59,-478.694 2811.27,-476.595"/>
</g>
<!--  Cumulative_COVID_19_deaths_on_certificate  -->
<g id="node3" class="node"><title> Cumulative_COVID_19_deaths_on_certificate </title>
<ellipse fill="none" stroke="black" cx="1822.56" cy="-738" rx="198.44" ry="18"/>
<text text-anchor="middle" x="1822.56" y="-733.8" font-family="Times,serif" font-size="14.00"> Cumulative_COVID_19_deaths_on_certificate </text>
</g>
<!--  Antibody_tests_capacity  -->
<g id="node4" class="node"><title> Antibody_tests_capacity </title>
<ellipse fill="none" stroke="black" cx="2577.56" cy="-666" rx="111.179" ry="18"/>
<text text-anchor="middle" x="2577.56" y="-661.8" font-family="Times,serif" font-size="14.00"> Antibody_tests_capacity </text>
</g>
<!--  Cumulative_COVID_19_deaths_on_certificate &#45;&gt; Antibody_tests_capacity  -->
<g id="edge2" class="edge"><title> Cumulative_COVID_19_deaths_on_certificate &#45;&gt; Antibody_tests_capacity </title>
<path fill="none" stroke="black" d="M1955.8,-724.647C2103.4,-710.962 2338.31,-689.182 2473.17,-676.679"/>
<polygon fill="black" stroke="black" points="2473.87,-680.129 2483.5,-675.721 2473.22,-673.159 2473.87,-680.129"/>
</g>
<!--  Bus_activity  -->
<g id="node5" class="node"><title> Bus_activity </title>
<ellipse fill="none" stroke="black" cx="1822.56" cy="-666" rx="64.8661" ry="18"/>
<text text-anchor="middle" x="1822.56" y="-661.8" font-family="Times,serif" font-size="14.00"> Bus_activity </text>
</g>
<!--  Cumulative_COVID_19_deaths_on_certificate &#45;&gt; Bus_activity  -->
<g id="edge3" class="edge"><title> Cumulative_COVID_19_deaths_on_certificate &#45;&gt; Bus_activity </title>
<path fill="none" stroke="black" d="M1822.56,-719.697C1822.56,-711.983 1822.56,-702.712 1822.56,-694.112"/>
<polygon fill="black" stroke="black" points="1826.06,-694.104 1822.56,-684.104 1819.06,-694.104 1826.06,-694.104"/>
</g>
<!--  Pillar_3_tests_capacity  -->
<g id="node30" class="node"><title> Pillar_3_tests_capacity </title>
<ellipse fill="none" stroke="black" cx="2813.56" cy="-594" rx="105.372" ry="18"/>
<text text-anchor="middle" x="2813.56" y="-589.8" font-family="Times,serif" font-size="14.00"> Pillar_3_tests_capacity </text>
</g>
<!--  Antibody_tests_capacity &#45;&gt; Pillar_3_tests_capacity  -->
<g id="edge24" class="edge"><title> Antibody_tests_capacity &#45;&gt; Pillar_3_tests_capacity </title>
<path fill="none" stroke="black" d="M2628.48,-649.897C2665.05,-639.05 2714.49,-624.385 2753.07,-612.941"/>
<polygon fill="black" stroke="black" points="2754.55,-616.155 2763.14,-609.955 2752.56,-609.444 2754.55,-616.155"/>
</g>
<!--  Pillar_4_tests_capacity  -->
<g id="node32" class="node"><title> Pillar_4_tests_capacity </title>
<ellipse fill="none" stroke="black" cx="2577.56" cy="-594" rx="105.372" ry="18"/>
<text text-anchor="middle" x="2577.56" y="-589.8" font-family="Times,serif" font-size="14.00"> Pillar_4_tests_capacity </text>
</g>
<!--  Antibody_tests_capacity &#45;&gt; Pillar_4_tests_capacity  -->
<g id="edge26" class="edge"><title> Antibody_tests_capacity &#45;&gt; Pillar_4_tests_capacity </title>
<path fill="none" stroke="black" d="M2577.56,-647.697C2577.56,-639.983 2577.56,-630.712 2577.56,-622.112"/>
<polygon fill="black" stroke="black" points="2581.06,-622.104 2577.56,-612.104 2574.06,-622.104 2581.06,-622.104"/>
</g>
<!--  Tube_activity  -->
<g id="node58" class="node"><title> Tube_activity </title>
<ellipse fill="none" stroke="black" cx="1822.56" cy="-594" rx="69.5032" ry="18"/>
<text text-anchor="middle" x="1822.56" y="-589.8" font-family="Times,serif" font-size="14.00"> Tube_activity </text>
</g>
<!--  Bus_activity &#45;&gt; Tube_activity  -->
<g id="edge54" class="edge"><title> Bus_activity &#45;&gt; Tube_activity </title>
<path fill="none" stroke="black" d="M1822.56,-647.697C1822.56,-639.983 1822.56,-630.712 1822.56,-622.112"/>
<polygon fill="black" stroke="black" points="1826.06,-622.104 1822.56,-612.104 1819.06,-622.104 1826.06,-622.104"/>
</g>
<!--  Deaths_with_COVID_on_certificate  -->
<g id="node6" class="node"><title> Deaths_with_COVID_on_certificate </title>
<ellipse fill="none" stroke="black" cx="1425.56" cy="-378" rx="157.965" ry="18"/>
<text text-anchor="middle" x="1425.56" y="-373.8" font-family="Times,serif" font-size="14.00"> Deaths_with_COVID_on_certificate </text>
</g>
<!--  Deaths_within_28_days_of_COVID  -->
<g id="node7" class="node"><title> Deaths_within_28_days_of_COVID </title>
<ellipse fill="none" stroke="black" cx="1425.56" cy="-306" rx="157.435" ry="18"/>
<text text-anchor="middle" x="1425.56" y="-301.8" font-family="Times,serif" font-size="14.00"> Deaths_within_28_days_of_COVID </text>
</g>
<!--  Deaths_with_COVID_on_certificate &#45;&gt; Deaths_within_28_days_of_COVID  -->
<g id="edge4" class="edge"><title> Deaths_with_COVID_on_certificate &#45;&gt; Deaths_within_28_days_of_COVID </title>
<path fill="none" stroke="black" d="M1425.56,-359.697C1425.56,-351.983 1425.56,-342.712 1425.56,-334.112"/>
<polygon fill="black" stroke="black" points="1429.06,-334.104 1425.56,-324.104 1422.06,-334.104 1429.06,-334.104"/>
</g>
<!--  Patients_in_hospital  -->
<g id="node12" class="node"><title> Patients_in_hospital </title>
<ellipse fill="none" stroke="black" cx="1252.56" cy="-234" rx="94.3795" ry="18"/>
<text text-anchor="middle" x="1252.56" y="-229.8" font-family="Times,serif" font-size="14.00"> Patients_in_hospital </text>
</g>
<!--  Deaths_within_28_days_of_COVID &#45;&gt; Patients_in_hospital  -->
<g id="edge7" class="edge"><title> Deaths_within_28_days_of_COVID &#45;&gt; Patients_in_hospital </title>
<path fill="none" stroke="black" d="M1385,-288.588C1359.65,-278.331 1326.88,-265.073 1300.29,-254.311"/>
<polygon fill="black" stroke="black" points="1301.37,-250.976 1290.79,-250.469 1298.75,-257.464 1301.37,-250.976"/>
</g>
<!--  Patients_in_MVBs  -->
<g id="node16" class="node"><title> Patients_in_MVBs </title>
<ellipse fill="none" stroke="black" cx="1473.56" cy="-234" rx="89.2243" ry="18"/>
<text text-anchor="middle" x="1473.56" y="-229.8" font-family="Times,serif" font-size="14.00"> Patients_in_MVBs </text>
</g>
<!--  Deaths_within_28_days_of_COVID &#45;&gt; Patients_in_MVBs  -->
<g id="edge11" class="edge"><title> Deaths_within_28_days_of_COVID &#45;&gt; Patients_in_MVBs </title>
<path fill="none" stroke="black" d="M1437.42,-287.697C1443.06,-279.474 1449.91,-269.483 1456.13,-260.421"/>
<polygon fill="black" stroke="black" points="1459.06,-262.331 1461.83,-252.104 1453.29,-258.372 1459.06,-262.331"/>
</g>
<!--  Deaths_with_COVID_on_certificate_22_days_forward  -->
<g id="node8" class="node"><title> Deaths_with_COVID_on_certificate_22_days_forward </title>
<ellipse fill="none" stroke="black" cx="1818.56" cy="-90" rx="230.267" ry="18"/>
<text text-anchor="middle" x="1818.56" y="-85.8" font-family="Times,serif" font-size="14.00"> Deaths_with_COVID_on_certificate_22_days_forward </text>
</g>
<!--  Deaths_within_28_days_of_COVID_21_days_forward  -->
<g id="node9" class="node"><title> Deaths_within_28_days_of_COVID_21_days_forward </title>
<ellipse fill="none" stroke="black" cx="1818.56" cy="-18" rx="229.737" ry="18"/>
<text text-anchor="middle" x="1818.56" y="-13.8" font-family="Times,serif" font-size="14.00"> Deaths_within_28_days_of_COVID_21_days_forward </text>
</g>
<!--  Deaths_with_COVID_on_certificate_22_days_forward &#45;&gt; Deaths_within_28_days_of_COVID_21_days_forward  -->
<g id="edge5" class="edge"><title> Deaths_with_COVID_on_certificate_22_days_forward &#45;&gt; Deaths_within_28_days_of_COVID_21_days_forward </title>
<path fill="none" stroke="black" d="M1818.56,-71.6966C1818.56,-63.9827 1818.56,-54.7125 1818.56,-46.1124"/>
<polygon fill="black" stroke="black" points="1822.06,-46.1043 1818.56,-36.1043 1815.06,-46.1044 1822.06,-46.1043"/>
</g>
<!--  Leisure_activity  -->
<g id="node10" class="node"><title> Leisure_activity </title>
<ellipse fill="none" stroke="black" cx="1688.56" cy="-306" rx="78.7279" ry="18"/>
<text text-anchor="middle" x="1688.56" y="-301.8" font-family="Times,serif" font-size="14.00"> Leisure_activity </text>
</g>
<!--  Park_visits  -->
<g id="node11" class="node"><title> Park_visits </title>
<ellipse fill="none" stroke="black" cx="1688.56" cy="-234" rx="58.5655" ry="18"/>
<text text-anchor="middle" x="1688.56" y="-229.8" font-family="Times,serif" font-size="14.00"> Park_visits </text>
</g>
<!--  Leisure_activity &#45;&gt; Park_visits  -->
<g id="edge6" class="edge"><title> Leisure_activity &#45;&gt; Park_visits </title>
<path fill="none" stroke="black" d="M1688.56,-287.697C1688.56,-279.983 1688.56,-270.712 1688.56,-262.112"/>
<polygon fill="black" stroke="black" points="1692.06,-262.104 1688.56,-252.104 1685.06,-262.104 1692.06,-262.104"/>
</g>
<!--  Hospital_admissions  -->
<g id="node13" class="node"><title> Hospital_admissions </title>
<ellipse fill="none" stroke="black" cx="1215.56" cy="-162" rx="96.1671" ry="18"/>
<text text-anchor="middle" x="1215.56" y="-157.8" font-family="Times,serif" font-size="14.00"> Hospital_admissions </text>
</g>
<!--  Patients_in_hospital &#45;&gt; Hospital_admissions  -->
<g id="edge8" class="edge"><title> Patients_in_hospital &#45;&gt; Hospital_admissions </title>
<path fill="none" stroke="black" d="M1243.6,-216.055C1239.35,-208.007 1234.17,-198.205 1229.42,-189.226"/>
<polygon fill="black" stroke="black" points="1232.46,-187.481 1224.69,-180.275 1226.27,-190.752 1232.46,-187.481"/>
</g>
<!--  Patients_in_hospital_14_days_forward  -->
<g id="node14" class="node"><title> Patients_in_hospital_14_days_forward </title>
<ellipse fill="none" stroke="black" cx="1215.56" cy="-90" rx="166.681" ry="18"/>
<text text-anchor="middle" x="1215.56" y="-85.8" font-family="Times,serif" font-size="14.00"> Patients_in_hospital_14_days_forward </text>
</g>
<!--  Hospital_admissions &#45;&gt; Patients_in_hospital_14_days_forward  -->
<g id="edge9" class="edge"><title> Hospital_admissions &#45;&gt; Patients_in_hospital_14_days_forward </title>
<path fill="none" stroke="black" d="M1215.56,-143.697C1215.56,-135.983 1215.56,-126.712 1215.56,-118.112"/>
<polygon fill="black" stroke="black" points="1219.06,-118.104 1215.56,-108.104 1212.06,-118.104 1219.06,-118.104"/>
</g>
<!--  Hospital_admissions_14_days_forward  -->
<g id="node15" class="node"><title> Hospital_admissions_14_days_forward </title>
<ellipse fill="none" stroke="black" cx="1215.56" cy="-18" rx="168.969" ry="18"/>
<text text-anchor="middle" x="1215.56" y="-13.8" font-family="Times,serif" font-size="14.00"> Hospital_admissions_14_days_forward </text>
</g>
<!--  Patients_in_hospital_14_days_forward &#45;&gt; Hospital_admissions_14_days_forward  -->
<g id="edge10" class="edge"><title> Patients_in_hospital_14_days_forward &#45;&gt; Hospital_admissions_14_days_forward </title>
<path fill="none" stroke="black" d="M1215.56,-71.6966C1215.56,-63.9827 1215.56,-54.7125 1215.56,-46.1124"/>
<polygon fill="black" stroke="black" points="1219.06,-46.1043 1215.56,-36.1043 1212.06,-46.1044 1219.06,-46.1043"/>
</g>
<!--  Patients_in_MVBs_14_days_forward  -->
<g id="node17" class="node"><title> Patients_in_MVBs_14_days_forward </title>
<ellipse fill="none" stroke="black" cx="1491.56" cy="-162" rx="161.526" ry="18"/>
<text text-anchor="middle" x="1491.56" y="-157.8" font-family="Times,serif" font-size="14.00"> Patients_in_MVBs_14_days_forward </text>
</g>
<!--  Patients_in_MVBs &#45;&gt; Patients_in_MVBs_14_days_forward  -->
<g id="edge14" class="edge"><title> Patients_in_MVBs &#45;&gt; Patients_in_MVBs_14_days_forward </title>
<path fill="none" stroke="black" d="M1478.01,-215.697C1480.01,-207.898 1482.43,-198.509 1484.66,-189.829"/>
<polygon fill="black" stroke="black" points="1488.06,-190.661 1487.16,-180.104 1481.28,-188.918 1488.06,-190.661"/>
</g>
<!--  Patients_in_MVBs_14_days_forward &#45;&gt; Deaths_with_COVID_on_certificate_22_days_forward  -->
<g id="edge12" class="edge"><title> Patients_in_MVBs_14_days_forward &#45;&gt; Deaths_with_COVID_on_certificate_22_days_forward </title>
<path fill="none" stroke="black" d="M1562.51,-145.811C1612.72,-135.064 1680.28,-120.601 1733.4,-109.23"/>
<polygon fill="black" stroke="black" points="1734.43,-112.588 1743.48,-107.072 1732.97,-105.743 1734.43,-112.588"/>
</g>
<!--  Excess_mortality  -->
<g id="node18" class="node"><title> Excess_mortality </title>
<ellipse fill="none" stroke="black" cx="1487.56" cy="-90" rx="82.8225" ry="18"/>
<text text-anchor="middle" x="1487.56" y="-85.8" font-family="Times,serif" font-size="14.00"> Excess_mortality </text>
</g>
<!--  Patients_in_MVBs_14_days_forward &#45;&gt; Excess_mortality  -->
<g id="edge13" class="edge"><title> Patients_in_MVBs_14_days_forward &#45;&gt; Excess_mortality </title>
<path fill="none" stroke="black" d="M1490.57,-143.697C1490.13,-135.983 1489.6,-126.712 1489.11,-118.112"/>
<polygon fill="black" stroke="black" points="1492.6,-117.888 1488.54,-108.104 1485.61,-118.288 1492.6,-117.888"/>
</g>
<!--  PCR_tests  -->
<g id="node19" class="node"><title> PCR_tests </title>
<ellipse fill="none" stroke="black" cx="450.56" cy="-378" rx="56.215" ry="18"/>
<text text-anchor="middle" x="450.56" y="-373.8" font-family="Times,serif" font-size="14.00"> PCR_tests </text>
</g>
<!--  PCR_tests_relative_to_capacity  -->
<g id="node20" class="node"><title> PCR_tests_relative_to_capacity </title>
<ellipse fill="none" stroke="black" cx="460.56" cy="-306" rx="139.461" ry="18"/>
<text text-anchor="middle" x="460.56" y="-301.8" font-family="Times,serif" font-size="14.00"> PCR_tests_relative_to_capacity </text>
</g>
<!--  PCR_tests &#45;&gt; PCR_tests_relative_to_capacity  -->
<g id="edge15" class="edge"><title> PCR_tests &#45;&gt; PCR_tests_relative_to_capacity </title>
<path fill="none" stroke="black" d="M453.031,-359.697C454.133,-351.983 455.458,-342.712 456.686,-334.112"/>
<polygon fill="black" stroke="black" points="460.167,-334.499 458.116,-324.104 453.237,-333.509 460.167,-334.499"/>
</g>
<!--  PCR_tests_capacity  -->
<g id="node21" class="node"><title> PCR_tests_capacity </title>
<ellipse fill="none" stroke="black" cx="673.56" cy="-594" rx="93.2142" ry="18"/>
<text text-anchor="middle" x="673.56" y="-589.8" font-family="Times,serif" font-size="14.00"> PCR_tests_capacity </text>
</g>
<!--  Pillar_1_tests_capacity  -->
<g id="node22" class="node"><title> Pillar_1_tests_capacity </title>
<ellipse fill="none" stroke="black" cx="902.56" cy="-522" rx="105.372" ry="18"/>
<text text-anchor="middle" x="902.56" y="-517.8" font-family="Times,serif" font-size="14.00"> Pillar_1_tests_capacity </text>
</g>
<!--  PCR_tests_capacity &#45;&gt; Pillar_1_tests_capacity  -->
<g id="edge16" class="edge"><title> PCR_tests_capacity &#45;&gt; Pillar_1_tests_capacity </title>
<path fill="none" stroke="black" d="M721.008,-578.496C756.606,-567.615 805.552,-552.653 843.654,-541.006"/>
<polygon fill="black" stroke="black" points="845.051,-544.239 853.591,-537.968 843.005,-537.545 845.051,-544.239"/>
</g>
<!--  Pillar_2_tests  -->
<g id="node25" class="node"><title> Pillar_2_tests </title>
<ellipse fill="none" stroke="black" cx="441.56" cy="-522" rx="68.3729" ry="18"/>
<text text-anchor="middle" x="441.56" y="-517.8" font-family="Times,serif" font-size="14.00"> Pillar_2_tests </text>
</g>
<!--  PCR_tests_capacity &#45;&gt; Pillar_2_tests  -->
<g id="edge18" class="edge"><title> PCR_tests_capacity &#45;&gt; Pillar_2_tests </title>
<path fill="none" stroke="black" d="M625.489,-578.496C587.315,-566.978 533.985,-550.887 494.576,-538.996"/>
<polygon fill="black" stroke="black" points="495.459,-535.607 484.874,-536.069 493.437,-542.308 495.459,-535.607"/>
</g>
<!--  Pillar_2_tests_capacity  -->
<g id="node26" class="node"><title> Pillar_2_tests_capacity </title>
<ellipse fill="none" stroke="black" cx="673.56" cy="-522" rx="105.372" ry="18"/>
<text text-anchor="middle" x="673.56" y="-517.8" font-family="Times,serif" font-size="14.00"> Pillar_2_tests_capacity </text>
</g>
<!--  PCR_tests_capacity &#45;&gt; Pillar_2_tests_capacity  -->
<g id="edge20" class="edge"><title> PCR_tests_capacity &#45;&gt; Pillar_2_tests_capacity </title>
<path fill="none" stroke="black" d="M673.56,-575.697C673.56,-567.983 673.56,-558.712 673.56,-550.112"/>
<polygon fill="black" stroke="black" points="677.06,-550.104 673.56,-540.104 670.06,-550.104 677.06,-550.104"/>
</g>
<!--  Pillar_1_tests  -->
<g id="node23" class="node"><title> Pillar_1_tests </title>
<ellipse fill="none" stroke="black" cx="215.56" cy="-378" rx="68.3729" ry="18"/>
<text text-anchor="middle" x="215.56" y="-373.8" font-family="Times,serif" font-size="14.00"> Pillar_1_tests </text>
</g>
<!--  Pillar_1_tests_relative_to_capacity  -->
<g id="node24" class="node"><title> Pillar_1_tests_relative_to_capacity </title>
<ellipse fill="none" stroke="black" cx="151.56" cy="-306" rx="151.619" ry="18"/>
<text text-anchor="middle" x="151.56" y="-301.8" font-family="Times,serif" font-size="14.00"> Pillar_1_tests_relative_to_capacity </text>
</g>
<!--  Pillar_1_tests &#45;&gt; Pillar_1_tests_relative_to_capacity  -->
<g id="edge17" class="edge"><title> Pillar_1_tests &#45;&gt; Pillar_1_tests_relative_to_capacity </title>
<path fill="none" stroke="black" d="M200.392,-360.411C192.459,-351.734 182.596,-340.946 173.815,-331.342"/>
<polygon fill="black" stroke="black" points="176.393,-328.975 167.062,-323.956 171.227,-333.698 176.393,-328.975"/>
</g>
<!--  Pillar_2_tests_relative_to_capacity  -->
<g id="node28" class="node"><title> Pillar_2_tests_relative_to_capacity </title>
<ellipse fill="none" stroke="black" cx="153.56" cy="-450" rx="151.619" ry="18"/>
<text text-anchor="middle" x="153.56" y="-445.8" font-family="Times,serif" font-size="14.00"> Pillar_2_tests_relative_to_capacity </text>
</g>
<!--  Pillar_2_tests &#45;&gt; Pillar_2_tests_relative_to_capacity  -->
<g id="edge21" class="edge"><title> Pillar_2_tests &#45;&gt; Pillar_2_tests_relative_to_capacity </title>
<path fill="none" stroke="black" d="M393.03,-509.205C347.548,-498.15 278.94,-481.474 226.801,-468.802"/>
<polygon fill="black" stroke="black" points="227.48,-465.365 216.936,-466.404 225.827,-472.167 227.48,-465.365"/>
</g>
<!--  Tests_across_all_4_Pillars  -->
<g id="node52" class="node"><title> Tests_across_all_4_Pillars </title>
<ellipse fill="none" stroke="black" cx="441.56" cy="-450" rx="118.693" ry="18"/>
<text text-anchor="middle" x="441.56" y="-445.8" font-family="Times,serif" font-size="14.00"> Tests_across_all_4_Pillars </text>
</g>
<!--  Pillar_2_tests &#45;&gt; Tests_across_all_4_Pillars  -->
<g id="edge48" class="edge"><title> Pillar_2_tests &#45;&gt; Tests_across_all_4_Pillars </title>
<path fill="none" stroke="black" d="M441.56,-503.697C441.56,-495.983 441.56,-486.712 441.56,-478.112"/>
<polygon fill="black" stroke="black" points="445.06,-478.104 441.56,-468.104 438.06,-478.104 445.06,-478.104"/>
</g>
<!--  New_infections_7_days_ahead  -->
<g id="node27" class="node"><title> New_infections_7_days_ahead </title>
<ellipse fill="none" stroke="black" cx="714.56" cy="-450" rx="136.567" ry="18"/>
<text text-anchor="middle" x="714.56" y="-445.8" font-family="Times,serif" font-size="14.00"> New_infections_7_days_ahead </text>
</g>
<!--  Pillar_2_tests_capacity &#45;&gt; New_infections_7_days_ahead  -->
<g id="edge19" class="edge"><title> Pillar_2_tests_capacity &#45;&gt; New_infections_7_days_ahead </title>
<path fill="none" stroke="black" d="M683.484,-504.055C688.248,-495.922 694.061,-485.998 699.365,-476.943"/>
<polygon fill="black" stroke="black" points="702.407,-478.673 704.441,-468.275 696.367,-475.135 702.407,-478.673"/>
</g>
<!--  Positive_tests_7_days_ahead  -->
<g id="node37" class="node"><title> Positive_tests_7_days_ahead </title>
<ellipse fill="none" stroke="black" cx="714.56" cy="-378" rx="128.515" ry="18"/>
<text text-anchor="middle" x="714.56" y="-373.8" font-family="Times,serif" font-size="14.00"> Positive_tests_7_days_ahead </text>
</g>
<!--  New_infections_7_days_ahead &#45;&gt; Positive_tests_7_days_ahead  -->
<g id="edge30" class="edge"><title> New_infections_7_days_ahead &#45;&gt; Positive_tests_7_days_ahead </title>
<path fill="none" stroke="black" d="M714.56,-431.697C714.56,-423.983 714.56,-414.712 714.56,-406.112"/>
<polygon fill="black" stroke="black" points="718.06,-406.104 714.56,-396.104 711.06,-406.104 718.06,-406.104"/>
</g>
<!--  Pillar_3_tests_relative_to_capacity  -->
<g id="node31" class="node"><title> Pillar_3_tests_relative_to_capacity </title>
<ellipse fill="none" stroke="black" cx="2799.56" cy="-378" rx="151.619" ry="18"/>
<text text-anchor="middle" x="2799.56" y="-373.8" font-family="Times,serif" font-size="14.00"> Pillar_3_tests_relative_to_capacity </text>
</g>
<!--  Pillar_3_tests &#45;&gt; Pillar_3_tests_relative_to_capacity  -->
<g id="edge25" class="edge"><title> Pillar_3_tests &#45;&gt; Pillar_3_tests_relative_to_capacity </title>
<path fill="none" stroke="black" d="M2799.56,-431.697C2799.56,-423.983 2799.56,-414.712 2799.56,-406.112"/>
<polygon fill="black" stroke="black" points="2803.06,-406.104 2799.56,-396.104 2796.06,-406.104 2803.06,-406.104"/>
</g>
<!--  Pillar_3_tests_capacity &#45;&gt; Antibody_tests  -->
<g id="edge23" class="edge"><title> Pillar_3_tests_capacity &#45;&gt; Antibody_tests </title>
<path fill="none" stroke="black" d="M2815.54,-575.697C2816.42,-567.983 2817.48,-558.712 2818.46,-550.112"/>
<polygon fill="black" stroke="black" points="2821.95,-550.437 2819.6,-540.104 2814.99,-549.642 2821.95,-550.437"/>
</g>
<!--  Pillar_4_tests_relative_to_capacity  -->
<g id="node33" class="node"><title> Pillar_4_tests_relative_to_capacity </title>
<ellipse fill="none" stroke="black" cx="2577.56" cy="-522" rx="151.619" ry="18"/>
<text text-anchor="middle" x="2577.56" y="-517.8" font-family="Times,serif" font-size="14.00"> Pillar_4_tests_relative_to_capacity </text>
</g>
<!--  Pillar_4_tests_capacity &#45;&gt; Pillar_4_tests_relative_to_capacity  -->
<g id="edge28" class="edge"><title> Pillar_4_tests_capacity &#45;&gt; Pillar_4_tests_relative_to_capacity </title>
<path fill="none" stroke="black" d="M2577.56,-575.697C2577.56,-567.983 2577.56,-558.712 2577.56,-550.112"/>
<polygon fill="black" stroke="black" points="2581.06,-550.104 2577.56,-540.104 2574.06,-550.104 2581.06,-550.104"/>
</g>
<!--  Pillar_4_tests  -->
<g id="node34" class="node"><title> Pillar_4_tests </title>
<ellipse fill="none" stroke="black" cx="2600.56" cy="-450" rx="68.3729" ry="18"/>
<text text-anchor="middle" x="2600.56" y="-445.8" font-family="Times,serif" font-size="14.00"> Pillar_4_tests </text>
</g>
<!--  Pillar_4_tests_relative_to_capacity &#45;&gt; Pillar_4_tests  -->
<g id="edge27" class="edge"><title> Pillar_4_tests_relative_to_capacity &#45;&gt; Pillar_4_tests </title>
<path fill="none" stroke="black" d="M2583.24,-503.697C2585.81,-495.898 2588.89,-486.509 2591.74,-477.829"/>
<polygon fill="black" stroke="black" points="2595.14,-478.697 2594.94,-468.104 2588.49,-476.512 2595.14,-478.697"/>
</g>
<!--  New_infentions  -->
<g id="node35" class="node"><title> New_infentions </title>
<ellipse fill="none" stroke="black" cx="714.56" cy="-306" rx="77.5897" ry="18"/>
<text text-anchor="middle" x="714.56" y="-301.8" font-family="Times,serif" font-size="14.00"> New_infentions </text>
</g>
<!--  Positive_tests  -->
<g id="node36" class="node"><title> Positive_tests </title>
<ellipse fill="none" stroke="black" cx="714.56" cy="-234" rx="68.9544" ry="18"/>
<text text-anchor="middle" x="714.56" y="-229.8" font-family="Times,serif" font-size="14.00"> Positive_tests </text>
</g>
<!--  New_infentions &#45;&gt; Positive_tests  -->
<g id="edge29" class="edge"><title> New_infentions &#45;&gt; Positive_tests </title>
<path fill="none" stroke="black" d="M714.56,-287.697C714.56,-279.983 714.56,-270.712 714.56,-262.112"/>
<polygon fill="black" stroke="black" points="718.06,-262.104 714.56,-252.104 711.06,-262.104 718.06,-262.104"/>
</g>
<!--  Positive_tests_previous_day  -->
<g id="node38" class="node"><title> Positive_tests_previous_day </title>
<ellipse fill="none" stroke="black" cx="714.56" cy="-162" rx="125.665" ry="18"/>
<text text-anchor="middle" x="714.56" y="-157.8" font-family="Times,serif" font-size="14.00"> Positive_tests_previous_day </text>
</g>
<!--  Positive_tests &#45;&gt; Positive_tests_previous_day  -->
<g id="edge32" class="edge"><title> Positive_tests &#45;&gt; Positive_tests_previous_day </title>
<path fill="none" stroke="black" d="M714.56,-215.697C714.56,-207.983 714.56,-198.712 714.56,-190.112"/>
<polygon fill="black" stroke="black" points="718.06,-190.104 714.56,-180.104 711.06,-190.104 718.06,-190.104"/>
</g>
<!--  Positive_tests_7_days_ahead &#45;&gt; New_infentions  -->
<g id="edge31" class="edge"><title> Positive_tests_7_days_ahead &#45;&gt; New_infentions </title>
<path fill="none" stroke="black" d="M714.56,-359.697C714.56,-351.983 714.56,-342.712 714.56,-334.112"/>
<polygon fill="black" stroke="black" points="718.06,-334.104 714.56,-324.104 711.06,-334.104 718.06,-334.104"/>
</g>
<!--  Reinfections  -->
<g id="node39" class="node"><title> Reinfections </title>
<ellipse fill="none" stroke="black" cx="1052.56" cy="-666" rx="64.8447" ry="18"/>
<text text-anchor="middle" x="1052.56" y="-661.8" font-family="Times,serif" font-size="14.00"> Reinfections </text>
</g>
<!--  Reinfections &#45;&gt; PCR_tests_capacity  -->
<g id="edge35" class="edge"><title> Reinfections &#45;&gt; PCR_tests_capacity </title>
<path fill="none" stroke="black" d="M1000.26,-655.34C934.997,-643.287 822.942,-622.59 748.552,-608.851"/>
<polygon fill="black" stroke="black" points="748.784,-605.335 738.315,-606.96 747.512,-612.218 748.784,-605.335"/>
</g>
<!--  Face_masks  -->
<g id="node40" class="node"><title> Face_masks </title>
<ellipse fill="none" stroke="black" cx="847.56" cy="-594" rx="63.1209" ry="18"/>
<text text-anchor="middle" x="847.56" y="-589.8" font-family="Times,serif" font-size="14.00"> Face_masks </text>
</g>
<!--  Reinfections &#45;&gt; Face_masks  -->
<g id="edge33" class="edge"><title> Reinfections &#45;&gt; Face_masks </title>
<path fill="none" stroke="black" d="M1013.03,-651.503C979.64,-640.1 931.686,-623.726 895.99,-611.537"/>
<polygon fill="black" stroke="black" points="896.864,-608.137 886.269,-608.218 894.602,-614.762 896.864,-608.137"/>
</g>
<!--  Reinfections_7_days_ahead  -->
<g id="node42" class="node"><title> Reinfections_7_days_ahead </title>
<ellipse fill="none" stroke="black" cx="1052.56" cy="-594" rx="124.405" ry="18"/>
<text text-anchor="middle" x="1052.56" y="-589.8" font-family="Times,serif" font-size="14.00"> Reinfections_7_days_ahead </text>
</g>
<!--  Reinfections &#45;&gt; Reinfections_7_days_ahead  -->
<g id="edge36" class="edge"><title> Reinfections &#45;&gt; Reinfections_7_days_ahead </title>
<path fill="none" stroke="black" d="M1052.56,-647.697C1052.56,-639.983 1052.56,-630.712 1052.56,-622.112"/>
<polygon fill="black" stroke="black" points="1056.06,-622.104 1052.56,-612.104 1049.06,-622.104 1056.06,-622.104"/>
</g>
<!--  Season  -->
<g id="node49" class="node"><title> Season </title>
<ellipse fill="none" stroke="black" cx="1205.56" cy="-378" rx="43.4396" ry="18"/>
<text text-anchor="middle" x="1205.56" y="-373.8" font-family="Times,serif" font-size="14.00"> Season </text>
</g>
<!--  Reinfections &#45;&gt; Season  -->
<g id="edge41" class="edge"><title> Reinfections &#45;&gt; Season </title>
<path fill="none" stroke="black" d="M1108.54,-656.739C1136.18,-649.634 1167.41,-636.448 1185.56,-612 1231.25,-550.455 1220.43,-452.964 1211.59,-406.018"/>
<polygon fill="black" stroke="black" points="1214.99,-405.129 1209.59,-396.009 1208.12,-406.501 1214.99,-405.129"/>
</g>
<!--  Majority_COVID_19_variant  -->
<g id="node41" class="node"><title> Majority_COVID_19_variant </title>
<ellipse fill="none" stroke="black" cx="1161.56" cy="-738" rx="131.365" ry="18"/>
<text text-anchor="middle" x="1161.56" y="-733.8" font-family="Times,serif" font-size="14.00"> Majority_COVID_19_variant </text>
</g>
<!--  Majority_COVID_19_variant &#45;&gt; Reinfections  -->
<g id="edge34" class="edge"><title> Majority_COVID_19_variant &#45;&gt; Reinfections </title>
<path fill="none" stroke="black" d="M1135.45,-720.233C1120.47,-710.609 1101.51,-698.434 1085.5,-688.157"/>
<polygon fill="black" stroke="black" points="1087.27,-685.129 1076.96,-682.671 1083.48,-691.019 1087.27,-685.129"/>
</g>
<!--  Restaurant_bookings  -->
<g id="node43" class="node"><title> Restaurant_bookings </title>
<ellipse fill="none" stroke="black" cx="1698.56" cy="-378" rx="97.2972" ry="18"/>
<text text-anchor="middle" x="1698.56" y="-373.8" font-family="Times,serif" font-size="14.00"> Restaurant_bookings </text>
</g>
<!--  Restaurant_bookings &#45;&gt; Leisure_activity  -->
<g id="edge38" class="edge"><title> Restaurant_bookings &#45;&gt; Leisure_activity </title>
<path fill="none" stroke="black" d="M1696.09,-359.697C1694.99,-351.983 1693.66,-342.712 1692.43,-334.112"/>
<polygon fill="black" stroke="black" points="1695.88,-333.509 1691,-324.104 1688.95,-334.499 1695.88,-333.509"/>
</g>
<!--  Flight_activity  -->
<g id="node44" class="node"><title> Flight_activity </title>
<ellipse fill="none" stroke="black" cx="1857.56" cy="-306" rx="72.9702" ry="18"/>
<text text-anchor="middle" x="1857.56" y="-301.8" font-family="Times,serif" font-size="14.00"> Flight_activity </text>
</g>
<!--  Restaurant_bookings &#45;&gt; Flight_activity  -->
<g id="edge37" class="edge"><title> Restaurant_bookings &#45;&gt; Flight_activity </title>
<path fill="none" stroke="black" d="M1734.64,-361.116C1758.28,-350.707 1789.31,-337.045 1814.28,-326.053"/>
<polygon fill="black" stroke="black" points="1815.79,-329.215 1823.53,-321.983 1812.97,-322.809 1815.79,-329.215"/>
</g>
<!--  Retail_and_recreation_activity  -->
<g id="node45" class="node"><title> Retail_and_recreation_activity </title>
<ellipse fill="none" stroke="black" cx="2150.56" cy="-450" rx="134.849" ry="18"/>
<text text-anchor="middle" x="2150.56" y="-445.8" font-family="Times,serif" font-size="14.00"> Retail_and_recreation_activity </text>
</g>
<!--  Grocery_and_pharmacy_visits  -->
<g id="node46" class="node"><title> Grocery_and_pharmacy_visits </title>
<ellipse fill="none" stroke="black" cx="2150.56" cy="-378" rx="134.277" ry="18"/>
<text text-anchor="middle" x="2150.56" y="-373.8" font-family="Times,serif" font-size="14.00"> Grocery_and_pharmacy_visits </text>
</g>
<!--  Retail_and_recreation_activity &#45;&gt; Grocery_and_pharmacy_visits  -->
<g id="edge39" class="edge"><title> Retail_and_recreation_activity &#45;&gt; Grocery_and_pharmacy_visits </title>
<path fill="none" stroke="black" d="M2150.56,-431.697C2150.56,-423.983 2150.56,-414.712 2150.56,-406.112"/>
<polygon fill="black" stroke="black" points="2154.06,-406.104 2150.56,-396.104 2147.06,-406.104 2154.06,-406.104"/>
</g>
<!--  Journeys_activity  -->
<g id="node47" class="node"><title> Journeys_activity </title>
<ellipse fill="none" stroke="black" cx="1425.56" cy="-522" rx="83.9701" ry="18"/>
<text text-anchor="middle" x="1425.56" y="-517.8" font-family="Times,serif" font-size="14.00"> Journeys_activity </text>
</g>
<!--  Schools  -->
<g id="node48" class="node"><title> Schools </title>
<ellipse fill="none" stroke="black" cx="1278.56" cy="-450" rx="46.3894" ry="18"/>
<text text-anchor="middle" x="1278.56" y="-445.8" font-family="Times,serif" font-size="14.00"> Schools </text>
</g>
<!--  Journeys_activity &#45;&gt; Schools  -->
<g id="edge40" class="edge"><title> Journeys_activity &#45;&gt; Schools </title>
<path fill="none" stroke="black" d="M1392.57,-505.291C1369.95,-494.521 1339.89,-480.206 1316.32,-468.98"/>
<polygon fill="black" stroke="black" points="1317.51,-465.672 1306.98,-464.533 1314.5,-471.992 1317.51,-465.672"/>
</g>
<!--  Walking_activity  -->
<g id="node63" class="node"><title> Walking_activity </title>
<ellipse fill="none" stroke="black" cx="1425.56" cy="-450" rx="82.8264" ry="18"/>
<text text-anchor="middle" x="1425.56" y="-445.8" font-family="Times,serif" font-size="14.00"> Walking_activity </text>
</g>
<!--  Journeys_activity &#45;&gt; Walking_activity  -->
<g id="edge62" class="edge"><title> Journeys_activity &#45;&gt; Walking_activity </title>
<path fill="none" stroke="black" d="M1425.56,-503.697C1425.56,-495.983 1425.56,-486.712 1425.56,-478.112"/>
<polygon fill="black" stroke="black" points="1429.06,-478.104 1425.56,-468.104 1422.06,-478.104 1429.06,-478.104"/>
</g>
<!--  Schools &#45;&gt; Season  -->
<g id="edge42" class="edge"><title> Schools &#45;&gt; Season </title>
<path fill="none" stroke="black" d="M1261.99,-433.116C1252.38,-423.897 1240.11,-412.127 1229.46,-401.919"/>
<polygon fill="black" stroke="black" points="1231.7,-399.216 1222.06,-394.821 1226.85,-404.269 1231.7,-399.216"/>
</g>
<!--  Second_dose_uptake  -->
<g id="node50" class="node"><title> Second_dose_uptake </title>
<ellipse fill="none" stroke="black" cx="1589.56" cy="-810" rx="97.2818" ry="18"/>
<text text-anchor="middle" x="1589.56" y="-805.8" font-family="Times,serif" font-size="14.00"> Second_dose_uptake </text>
</g>
<!--  Second_dose_uptake &#45;&gt; Cumulative_COVID_19_deaths_on_certificate  -->
<g id="edge43" class="edge"><title> Second_dose_uptake &#45;&gt; Cumulative_COVID_19_deaths_on_certificate </title>
<path fill="none" stroke="black" d="M1638.4,-794.326C1673.19,-783.874 1720.3,-769.722 1758.16,-758.347"/>
<polygon fill="black" stroke="black" points="1759.5,-761.598 1768.07,-755.369 1757.49,-754.894 1759.5,-761.598"/>
</g>
<!--  Second_dose_uptake &#45;&gt; Majority_COVID_19_variant  -->
<g id="edge45" class="edge"><title> Second_dose_uptake &#45;&gt; Majority_COVID_19_variant </title>
<path fill="none" stroke="black" d="M1519.36,-797.519C1446.47,-785.598 1332.16,-766.901 1252.42,-753.86"/>
<polygon fill="black" stroke="black" points="1252.81,-750.378 1242.38,-752.218 1251.68,-757.287 1252.81,-750.378"/>
</g>
<!--  Vaccinations_second_dose  -->
<g id="node60" class="node"><title> Vaccinations_second_dose </title>
<ellipse fill="none" stroke="black" cx="1485.56" cy="-738" rx="120.392" ry="18"/>
<text text-anchor="middle" x="1485.56" y="-733.8" font-family="Times,serif" font-size="14.00"> Vaccinations_second_dose </text>
</g>
<!--  Second_dose_uptake &#45;&gt; Vaccinations_second_dose  -->
<g id="edge58" class="edge"><title> Second_dose_uptake &#45;&gt; Vaccinations_second_dose </title>
<path fill="none" stroke="black" d="M1564.91,-792.411C1551.15,-783.151 1533.83,-771.487 1518.87,-761.423"/>
<polygon fill="black" stroke="black" points="1520.64,-758.393 1510.39,-755.713 1516.73,-764.2 1520.64,-758.393"/>
</g>
<!--  First_dose_uptake  -->
<g id="node51" class="node"><title> First_dose_uptake </title>
<ellipse fill="none" stroke="black" cx="1805.56" cy="-882" rx="86.8397" ry="18"/>
<text text-anchor="middle" x="1805.56" y="-877.8" font-family="Times,serif" font-size="14.00"> First_dose_uptake </text>
</g>
<!--  First_dose_uptake &#45;&gt; Second_dose_uptake  -->
<g id="edge44" class="edge"><title> First_dose_uptake &#45;&gt; Second_dose_uptake </title>
<path fill="none" stroke="black" d="M1760.8,-866.496C1727.37,-855.661 1681.45,-840.78 1645.58,-829.155"/>
<polygon fill="black" stroke="black" points="1646.34,-825.722 1635.75,-825.968 1644.18,-832.381 1646.34,-825.722"/>
</g>
<!--  Vaccinations_first_dose  -->
<g id="node59" class="node"><title> Vaccinations_first_dose </title>
<ellipse fill="none" stroke="black" cx="2022.56" cy="-810" rx="109.368" ry="18"/>
<text text-anchor="middle" x="2022.56" y="-805.8" font-family="Times,serif" font-size="14.00"> Vaccinations_first_dose </text>
</g>
<!--  First_dose_uptake &#45;&gt; Vaccinations_first_dose  -->
<g id="edge57" class="edge"><title> First_dose_uptake &#45;&gt; Vaccinations_first_dose </title>
<path fill="none" stroke="black" d="M1850.52,-866.496C1883.77,-855.771 1929.31,-841.081 1965.18,-829.509"/>
<polygon fill="black" stroke="black" points="1966.58,-832.735 1975.02,-826.334 1964.43,-826.073 1966.58,-832.735"/>
</g>
<!--  Tests_across_all_4_Pillars &#45;&gt; PCR_tests  -->
<g id="edge46" class="edge"><title> Tests_across_all_4_Pillars &#45;&gt; PCR_tests </title>
<path fill="none" stroke="black" d="M443.784,-431.697C444.776,-423.983 445.968,-414.712 447.074,-406.112"/>
<polygon fill="black" stroke="black" points="450.557,-406.469 448.36,-396.104 443.614,-405.576 450.557,-406.469"/>
</g>
<!--  Tests_across_all_4_Pillars &#45;&gt; Pillar_1_tests  -->
<g id="edge47" class="edge"><title> Tests_across_all_4_Pillars &#45;&gt; Pillar_1_tests </title>
<path fill="none" stroke="black" d="M391.963,-433.638C355.226,-422.259 305.269,-406.786 267.896,-395.211"/>
<polygon fill="black" stroke="black" points="268.785,-391.822 258.197,-392.206 266.714,-398.508 268.785,-391.822"/>
</g>
<!--  All_three_doses_uptake  -->
<g id="node53" class="node"><title> All_three_doses_uptake </title>
<ellipse fill="none" stroke="black" cx="1913.56" cy="-1026" rx="109.374" ry="18"/>
<text text-anchor="middle" x="1913.56" y="-1021.8" font-family="Times,serif" font-size="14.00"> All_three_doses_uptake </text>
</g>
<!--  Third_dose_uptake  -->
<g id="node54" class="node"><title> Third_dose_uptake </title>
<ellipse fill="none" stroke="black" cx="1913.56" cy="-954" rx="90.3371" ry="18"/>
<text text-anchor="middle" x="1913.56" y="-949.8" font-family="Times,serif" font-size="14.00"> Third_dose_uptake </text>
</g>
<!--  All_three_doses_uptake &#45;&gt; Third_dose_uptake  -->
<g id="edge49" class="edge"><title> All_three_doses_uptake &#45;&gt; Third_dose_uptake </title>
<path fill="none" stroke="black" d="M1913.56,-1007.7C1913.56,-999.983 1913.56,-990.712 1913.56,-982.112"/>
<polygon fill="black" stroke="black" points="1917.06,-982.104 1913.56,-972.104 1910.06,-982.104 1917.06,-982.104"/>
</g>
<!--  Third_dose_uptake &#45;&gt; First_dose_uptake  -->
<g id="edge50" class="edge"><title> Third_dose_uptake &#45;&gt; First_dose_uptake </title>
<path fill="none" stroke="black" d="M1888.24,-936.588C1873.61,-927.109 1855.04,-915.068 1839.2,-904.802"/>
<polygon fill="black" stroke="black" points="1841.02,-901.811 1830.72,-899.309 1837.21,-907.685 1841.02,-901.811"/>
</g>
<!--  Vaccinations_third_dose  -->
<g id="node61" class="node"><title> Vaccinations_third_dose </title>
<ellipse fill="none" stroke="black" cx="2022.56" cy="-882" rx="111.741" ry="18"/>
<text text-anchor="middle" x="2022.56" y="-877.8" font-family="Times,serif" font-size="14.00"> Vaccinations_third_dose </text>
</g>
<!--  Third_dose_uptake &#45;&gt; Vaccinations_third_dose  -->
<g id="edge59" class="edge"><title> Third_dose_uptake &#45;&gt; Vaccinations_third_dose </title>
<path fill="none" stroke="black" d="M1939.12,-936.588C1953.77,-927.178 1972.35,-915.242 1988.26,-905.024"/>
<polygon fill="black" stroke="black" points="1990.26,-907.9 1996.79,-899.552 1986.48,-902.01 1990.26,-907.9"/>
</g>
<!--  Transit_stations_activity  -->
<g id="node55" class="node"><title> Transit_stations_activity </title>
<ellipse fill="none" stroke="black" cx="1877.56" cy="-522" rx="111.19" ry="18"/>
<text text-anchor="middle" x="1877.56" y="-517.8" font-family="Times,serif" font-size="14.00"> Transit_stations_activity </text>
</g>
<!--  Transit_stations_activity &#45;&gt; Retail_and_recreation_activity  -->
<g id="edge52" class="edge"><title> Transit_stations_activity &#45;&gt; Retail_and_recreation_activity </title>
<path fill="none" stroke="black" d="M1934.46,-506.411C1977.11,-495.473 2035.71,-480.448 2081.13,-468.803"/>
<polygon fill="black" stroke="black" points="2082.08,-472.171 2090.9,-466.297 2080.34,-465.391 2082.08,-472.171"/>
</g>
<!--  Homeworking_activity  -->
<g id="node56" class="node"><title> Homeworking_activity </title>
<ellipse fill="none" stroke="black" cx="2408.56" cy="-450" rx="105.382" ry="18"/>
<text text-anchor="middle" x="2408.56" y="-445.8" font-family="Times,serif" font-size="14.00"> Homeworking_activity </text>
</g>
<!--  Transit_stations_activity &#45;&gt; Homeworking_activity  -->
<g id="edge51" class="edge"><title> Transit_stations_activity &#45;&gt; Homeworking_activity </title>
<path fill="none" stroke="black" d="M1963.88,-510.58C2048.26,-500.265 2180.34,-483.773 2294.56,-468 2303.58,-466.754 2313.01,-465.413 2322.4,-464.051"/>
<polygon fill="black" stroke="black" points="2323.16,-467.476 2332.55,-462.568 2322.15,-460.549 2323.16,-467.476"/>
</g>
<!--  Transportation_activity  -->
<g id="node57" class="node"><title> Transportation_activity </title>
<ellipse fill="none" stroke="black" cx="1632.56" cy="-450" rx="106.52" ry="18"/>
<text text-anchor="middle" x="1632.56" y="-445.8" font-family="Times,serif" font-size="14.00"> Transportation_activity </text>
</g>
<!--  Transit_stations_activity &#45;&gt; Transportation_activity  -->
<g id="edge53" class="edge"><title> Transit_stations_activity &#45;&gt; Transportation_activity </title>
<path fill="none" stroke="black" d="M1825.3,-506.069C1786.87,-495.089 1734.51,-480.129 1694.06,-468.573"/>
<polygon fill="black" stroke="black" points="1694.89,-465.17 1684.32,-465.788 1692.97,-471.9 1694.89,-465.17"/>
</g>
<!--  Work_and_school_activity  -->
<g id="node64" class="node"><title> Work_and_school_activity </title>
<ellipse fill="none" stroke="black" cx="1877.56" cy="-450" rx="120.415" ry="18"/>
<text text-anchor="middle" x="1877.56" y="-445.8" font-family="Times,serif" font-size="14.00"> Work_and_school_activity </text>
</g>
<!--  Transit_stations_activity &#45;&gt; Work_and_school_activity  -->
<g id="edge64" class="edge"><title> Transit_stations_activity &#45;&gt; Work_and_school_activity </title>
<path fill="none" stroke="black" d="M1877.56,-503.697C1877.56,-495.983 1877.56,-486.712 1877.56,-478.112"/>
<polygon fill="black" stroke="black" points="1881.06,-478.104 1877.56,-468.104 1874.06,-478.104 1881.06,-478.104"/>
</g>
<!--  Workplace_activity  -->
<g id="node65" class="node"><title> Workplace_activity </title>
<ellipse fill="none" stroke="black" cx="2408.56" cy="-378" rx="92.0354" ry="18"/>
<text text-anchor="middle" x="2408.56" y="-373.8" font-family="Times,serif" font-size="14.00"> Workplace_activity </text>
</g>
<!--  Homeworking_activity &#45;&gt; Workplace_activity  -->
<g id="edge65" class="edge"><title> Homeworking_activity &#45;&gt; Workplace_activity </title>
<path fill="none" stroke="black" d="M2408.56,-431.697C2408.56,-423.983 2408.56,-414.712 2408.56,-406.112"/>
<polygon fill="black" stroke="black" points="2412.06,-406.104 2408.56,-396.104 2405.06,-406.104 2412.06,-406.104"/>
</g>
<!--  Tube_activity &#45;&gt; Journeys_activity  -->
<g id="edge55" class="edge"><title> Tube_activity &#45;&gt; Journeys_activity </title>
<path fill="none" stroke="black" d="M1766.94,-583.193C1696.79,-570.824 1575.99,-549.523 1498.49,-535.86"/>
<polygon fill="black" stroke="black" points="1498.78,-532.357 1488.33,-534.067 1497.57,-539.251 1498.78,-532.357"/>
</g>
<!--  Tube_activity &#45;&gt; Transit_stations_activity  -->
<g id="edge56" class="edge"><title> Tube_activity &#45;&gt; Transit_stations_activity </title>
<path fill="none" stroke="black" d="M1835.87,-576.055C1842.4,-567.753 1850.39,-557.584 1857.62,-548.378"/>
<polygon fill="black" stroke="black" points="1860.56,-550.301 1863.99,-540.275 1855.06,-545.976 1860.56,-550.301"/>
</g>
<!--  Vaccinations_total  -->
<g id="node62" class="node"><title> Vaccinations_total </title>
<ellipse fill="none" stroke="black" cx="2126.56" cy="-738" rx="88.0403" ry="18"/>
<text text-anchor="middle" x="2126.56" y="-733.8" font-family="Times,serif" font-size="14.00"> Vaccinations_total </text>
</g>
<!--  Vaccinations_first_dose &#45;&gt; Vaccinations_total  -->
<g id="edge60" class="edge"><title> Vaccinations_first_dose &#45;&gt; Vaccinations_total </title>
<path fill="none" stroke="black" d="M2047.21,-792.411C2061.06,-783.083 2078.55,-771.316 2093.57,-761.203"/>
<polygon fill="black" stroke="black" points="2095.75,-763.957 2102.09,-755.47 2091.84,-758.15 2095.75,-763.957"/>
</g>
<!--  Walking_activity &#45;&gt; Deaths_with_COVID_on_certificate  -->
<g id="edge61" class="edge"><title> Walking_activity &#45;&gt; Deaths_with_COVID_on_certificate </title>
<path fill="none" stroke="black" d="M1425.56,-431.697C1425.56,-423.983 1425.56,-414.712 1425.56,-406.112"/>
<polygon fill="black" stroke="black" points="1429.06,-406.104 1425.56,-396.104 1422.06,-406.104 1429.06,-406.104"/>
</g>
<!--  Walking_activity &#45;&gt; Restaurant_bookings  -->
<g id="edge63" class="edge"><title> Walking_activity &#45;&gt; Restaurant_bookings </title>
<path fill="none" stroke="black" d="M1476.91,-435.834C1521.47,-424.409 1586.18,-407.816 1634.19,-395.505"/>
<polygon fill="black" stroke="black" points="1635.35,-398.821 1644.17,-392.947 1633.61,-392.04 1635.35,-398.821"/>
</g>
</g>
</svg>

