<?xml version="1.0" encoding="UTF-8" standalone="no"?>
<!DOCTYPE svg PUBLIC "-//W3C//DTD SVG 1.1//EN"
 "http://www.w3.org/Graphics/SVG/1.1/DTD/svg11.dtd">
<!-- Generated by graphviz version 2.38.0 (20140413.2041)
 -->
<!-- Title: g Pages: 1 -->
<svg width="1266pt" height="476pt"
 viewBox="0.00 0.00 1266.46 476.00" xmlns="http://www.w3.org/2000/svg" xmlns:xlink="http://www.w3.org/1999/xlink">
<g id="graph0" class="graph" transform="scale(1 1) rotate(0) translate(4 472)">
<title>g</title>
<polygon fill="white" stroke="none" points="-4,4 -4,-472 1262.46,-472 1262.46,4 -4,4"/>
<!--  Deaths_with_COVID_on_certificate  -->
<g id="node1" class="node"><title> Deaths_with_COVID_on_certificate </title>
<ellipse fill="none" stroke="black" cx="171.614" cy="-162" rx="157.965" ry="18"/>
<text text-anchor="middle" x="171.614" y="-157.8" font-family="Times,serif" font-size="14.00"> Deaths_with_COVID_on_certificate </text>
</g>
<!--  Leisure_activity  -->
<g id="node2" class="node"><title> Leisure_activity </title>
<ellipse fill="none" stroke="black" cx="78.6139" cy="-90" rx="78.7279" ry="18"/>
<text text-anchor="middle" x="78.6139" y="-85.8" font-family="Times,serif" font-size="14.00"> Leisure_activity </text>
</g>
<!--  Deaths_with_COVID_on_certificate &#45;&gt; Leisure_activity  -->
<g id="edge1" class="edge"><title> Deaths_with_COVID_on_certificate &#45;&gt; Leisure_activity </title>
<path fill="none" stroke="black" d="M149.101,-144.055C136.93,-134.894 121.74,-123.461 108.581,-113.556"/>
<polygon fill="black" stroke="black" points="110.373,-110.524 100.279,-107.307 106.164,-116.117 110.373,-110.524"/>
</g>
<!--  Patients_in_MVBs  -->
<g id="node9" class="node"><title> Patients_in_MVBs </title>
<ellipse fill="none" stroke="black" cx="264.614" cy="-90" rx="89.2243" ry="18"/>
<text text-anchor="middle" x="264.614" y="-85.8" font-family="Times,serif" font-size="14.00"> Patients_in_MVBs </text>
</g>
<!--  Deaths_with_COVID_on_certificate &#45;&gt; Patients_in_MVBs  -->
<g id="edge8" class="edge"><title> Deaths_with_COVID_on_certificate &#45;&gt; Patients_in_MVBs </title>
<path fill="none" stroke="black" d="M194.127,-144.055C206.209,-134.96 221.268,-123.626 234.36,-113.771"/>
<polygon fill="black" stroke="black" points="236.745,-116.358 242.629,-107.547 232.535,-110.765 236.745,-116.358"/>
</g>
<!--  Face_masks  -->
<g id="node3" class="node"><title> Face_masks </title>
<ellipse fill="none" stroke="black" cx="575.614" cy="-450" rx="63.1209" ry="18"/>
<text text-anchor="middle" x="575.614" y="-445.8" font-family="Times,serif" font-size="14.00"> Face_masks </text>
</g>
<!--  Lockdown  -->
<g id="node4" class="node"><title> Lockdown </title>
<ellipse fill="none" stroke="black" cx="404.614" cy="-378" rx="57.3301" ry="18"/>
<text text-anchor="middle" x="404.614" y="-373.8" font-family="Times,serif" font-size="14.00"> Lockdown </text>
</g>
<!--  Face_masks &#45;&gt; Lockdown  -->
<g id="edge2" class="edge"><title> Face_masks &#45;&gt; Lockdown </title>
<path fill="none" stroke="black" d="M541.009,-434.834C514.004,-423.78 476.348,-408.365 447.442,-396.532"/>
<polygon fill="black" stroke="black" points="448.584,-393.217 438.003,-392.668 445.932,-399.696 448.584,-393.217"/>
</g>
<!--  Majority_COVID_19_variant  -->
<g id="node6" class="node"><title> Majority_COVID_19_variant </title>
<ellipse fill="none" stroke="black" cx="746.614" cy="-378" rx="131.365" ry="18"/>
<text text-anchor="middle" x="746.614" y="-373.8" font-family="Times,serif" font-size="14.00"> Majority_COVID_19_variant </text>
</g>
<!--  Face_masks &#45;&gt; Majority_COVID_19_variant  -->
<g id="edge4" class="edge"><title> Face_masks &#45;&gt; Majority_COVID_19_variant </title>
<path fill="none" stroke="black" d="M610.218,-434.834C635.273,-424.578 669.495,-410.569 697.392,-399.149"/>
<polygon fill="black" stroke="black" points="699.041,-402.256 706.97,-395.228 696.389,-395.778 699.041,-402.256"/>
</g>
<!--  Hospital_admissions  -->
<g id="node5" class="node"><title> Hospital_admissions </title>
<ellipse fill="none" stroke="black" cx="177.614" cy="-306" rx="96.1671" ry="18"/>
<text text-anchor="middle" x="177.614" y="-301.8" font-family="Times,serif" font-size="14.00"> Hospital_admissions </text>
</g>
<!--  Lockdown &#45;&gt; Hospital_admissions  -->
<g id="edge3" class="edge"><title> Lockdown &#45;&gt; Hospital_admissions </title>
<path fill="none" stroke="black" d="M365.333,-364.887C329.46,-353.825 275.975,-337.332 235.261,-324.777"/>
<polygon fill="black" stroke="black" points="236.055,-321.359 225.468,-321.757 233.992,-328.048 236.055,-321.359"/>
</g>
<!--  Transportation_activity  -->
<g id="node16" class="node"><title> Transportation_activity </title>
<ellipse fill="none" stroke="black" cx="404.614" cy="-306" rx="106.52" ry="18"/>
<text text-anchor="middle" x="404.614" y="-301.8" font-family="Times,serif" font-size="14.00"> Transportation_activity </text>
</g>
<!--  Lockdown &#45;&gt; Transportation_activity  -->
<g id="edge15" class="edge"><title> Lockdown &#45;&gt; Transportation_activity </title>
<path fill="none" stroke="black" d="M404.614,-359.697C404.614,-351.983 404.614,-342.712 404.614,-334.112"/>
<polygon fill="black" stroke="black" points="408.114,-334.104 404.614,-324.104 401.114,-334.104 408.114,-334.104"/>
</g>
<!--  Patients_in_hospital  -->
<g id="node8" class="node"><title> Patients_in_hospital </title>
<ellipse fill="none" stroke="black" cx="171.614" cy="-234" rx="94.3795" ry="18"/>
<text text-anchor="middle" x="171.614" y="-229.8" font-family="Times,serif" font-size="14.00"> Patients_in_hospital </text>
</g>
<!--  Hospital_admissions &#45;&gt; Patients_in_hospital  -->
<g id="edge7" class="edge"><title> Hospital_admissions &#45;&gt; Patients_in_hospital </title>
<path fill="none" stroke="black" d="M176.131,-287.697C175.47,-279.983 174.675,-270.712 173.938,-262.112"/>
<polygon fill="black" stroke="black" points="177.421,-261.769 173.08,-252.104 170.447,-262.367 177.421,-261.769"/>
</g>
<!--  New_infections  -->
<g id="node7" class="node"><title> New_infections </title>
<ellipse fill="none" stroke="black" cx="608.614" cy="-306" rx="77.0062" ry="18"/>
<text text-anchor="middle" x="608.614" y="-301.8" font-family="Times,serif" font-size="14.00"> New_infections </text>
</g>
<!--  Majority_COVID_19_variant &#45;&gt; New_infections  -->
<g id="edge5" class="edge"><title> Majority_COVID_19_variant &#45;&gt; New_infections </title>
<path fill="none" stroke="black" d="M713.91,-360.411C694.418,-350.524 669.525,-337.897 648.837,-327.403"/>
<polygon fill="black" stroke="black" points="650.163,-324.151 639.662,-322.749 646.997,-330.394 650.163,-324.151"/>
</g>
<!--  Season  -->
<g id="node13" class="node"><title> Season </title>
<ellipse fill="none" stroke="black" cx="746.614" cy="-306" rx="43.4396" ry="18"/>
<text text-anchor="middle" x="746.614" y="-301.8" font-family="Times,serif" font-size="14.00"> Season </text>
</g>
<!--  Majority_COVID_19_variant &#45;&gt; Season  -->
<g id="edge12" class="edge"><title> Majority_COVID_19_variant &#45;&gt; Season </title>
<path fill="none" stroke="black" d="M746.614,-359.697C746.614,-351.983 746.614,-342.712 746.614,-334.112"/>
<polygon fill="black" stroke="black" points="750.114,-334.104 746.614,-324.104 743.114,-334.104 750.114,-334.104"/>
</g>
<!--  Second_dose_uptake  -->
<g id="node14" class="node"><title> Second_dose_uptake </title>
<ellipse fill="none" stroke="black" cx="905.614" cy="-306" rx="97.2818" ry="18"/>
<text text-anchor="middle" x="905.614" y="-301.8" font-family="Times,serif" font-size="14.00"> Second_dose_uptake </text>
</g>
<!--  Majority_COVID_19_variant &#45;&gt; Second_dose_uptake  -->
<g id="edge13" class="edge"><title> Majority_COVID_19_variant &#45;&gt; Second_dose_uptake </title>
<path fill="none" stroke="black" d="M783.892,-360.588C806.743,-350.528 836.15,-337.581 860.336,-326.934"/>
<polygon fill="black" stroke="black" points="861.921,-330.06 869.663,-322.827 859.101,-323.653 861.921,-330.06"/>
</g>
<!--  Tests_across_all_4_Pillars  -->
<g id="node15" class="node"><title> Tests_across_all_4_Pillars </title>
<ellipse fill="none" stroke="black" cx="1139.61" cy="-306" rx="118.693" ry="18"/>
<text text-anchor="middle" x="1139.61" y="-301.8" font-family="Times,serif" font-size="14.00"> Tests_across_all_4_Pillars </text>
</g>
<!--  Majority_COVID_19_variant &#45;&gt; Tests_across_all_4_Pillars  -->
<g id="edge14" class="edge"><title> Majority_COVID_19_variant &#45;&gt; Tests_across_all_4_Pillars </title>
<path fill="none" stroke="black" d="M823.321,-363.337C890.174,-351.429 986.942,-334.193 1055.81,-321.927"/>
<polygon fill="black" stroke="black" points="1056.53,-325.354 1065.76,-320.154 1055.3,-318.462 1056.53,-325.354"/>
</g>
<!--  Positive_tests  -->
<g id="node11" class="node"><title> Positive_tests </title>
<ellipse fill="none" stroke="black" cx="611.614" cy="-234" rx="68.9544" ry="18"/>
<text text-anchor="middle" x="611.614" y="-229.8" font-family="Times,serif" font-size="14.00"> Positive_tests </text>
</g>
<!--  New_infections &#45;&gt; Positive_tests  -->
<g id="edge10" class="edge"><title> New_infections &#45;&gt; Positive_tests </title>
<path fill="none" stroke="black" d="M609.355,-287.697C609.686,-279.983 610.083,-270.712 610.452,-262.112"/>
<polygon fill="black" stroke="black" points="613.949,-262.245 610.881,-252.104 606.956,-261.945 613.949,-262.245"/>
</g>
<!--  Patients_in_hospital &#45;&gt; Deaths_with_COVID_on_certificate  -->
<g id="edge6" class="edge"><title> Patients_in_hospital &#45;&gt; Deaths_with_COVID_on_certificate </title>
<path fill="none" stroke="black" d="M171.614,-215.697C171.614,-207.983 171.614,-198.712 171.614,-190.112"/>
<polygon fill="black" stroke="black" points="175.114,-190.104 171.614,-180.104 168.114,-190.104 175.114,-190.104"/>
</g>
<!--  Excess_mortality  -->
<g id="node10" class="node"><title> Excess_mortality </title>
<ellipse fill="none" stroke="black" cx="264.614" cy="-18" rx="82.8225" ry="18"/>
<text text-anchor="middle" x="264.614" y="-13.8" font-family="Times,serif" font-size="14.00"> Excess_mortality </text>
</g>
<!--  Patients_in_MVBs &#45;&gt; Excess_mortality  -->
<g id="edge9" class="edge"><title> Patients_in_MVBs &#45;&gt; Excess_mortality </title>
<path fill="none" stroke="black" d="M264.614,-71.6966C264.614,-63.9827 264.614,-54.7125 264.614,-46.1124"/>
<polygon fill="black" stroke="black" points="268.114,-46.1043 264.614,-36.1043 261.114,-46.1044 268.114,-46.1043"/>
</g>
<!--  Reinfections  -->
<g id="node12" class="node"><title> Reinfections </title>
<ellipse fill="none" stroke="black" cx="611.614" cy="-162" rx="64.8447" ry="18"/>
<text text-anchor="middle" x="611.614" y="-157.8" font-family="Times,serif" font-size="14.00"> Reinfections </text>
</g>
<!--  Positive_tests &#45;&gt; Reinfections  -->
<g id="edge11" class="edge"><title> Positive_tests &#45;&gt; Reinfections </title>
<path fill="none" stroke="black" d="M611.614,-215.697C611.614,-207.983 611.614,-198.712 611.614,-190.112"/>
<polygon fill="black" stroke="black" points="615.114,-190.104 611.614,-180.104 608.114,-190.104 615.114,-190.104"/>
</g>
<!--  Work_and_school_activity  -->
<g id="node17" class="node"><title> Work_and_school_activity </title>
<ellipse fill="none" stroke="black" cx="404.614" cy="-234" rx="120.415" ry="18"/>
<text text-anchor="middle" x="404.614" y="-229.8" font-family="Times,serif" font-size="14.00"> Work_and_school_activity </text>
</g>
<!--  Transportation_activity &#45;&gt; Work_and_school_activity  -->
<g id="edge16" class="edge"><title> Transportation_activity &#45;&gt; Work_and_school_activity </title>
<path fill="none" stroke="black" d="M404.614,-287.697C404.614,-279.983 404.614,-270.712 404.614,-262.112"/>
<polygon fill="black" stroke="black" points="408.114,-262.104 404.614,-252.104 401.114,-262.104 408.114,-262.104"/>
</g>
</g>
</svg>

