<?xml version="1.0" encoding="UTF-8" standalone="no"?>
<!DOCTYPE svg PUBLIC "-//W3C//DTD SVG 1.1//EN"
 "http://www.w3.org/Graphics/SVG/1.1/DTD/svg11.dtd">
<!-- Generated by graphviz version 2.38.0 (20140413.2041)
 -->
<!-- Title: g Pages: 1 -->
<svg width="2163pt" height="944pt"
 viewBox="0.00 0.00 2163.36 944.00" xmlns="http://www.w3.org/2000/svg" xmlns:xlink="http://www.w3.org/1999/xlink">
<g id="graph0" class="graph" transform="scale(1 1) rotate(0) translate(4 940)">
<title>g</title>
<polygon fill="white" stroke="none" points="-4,4 -4,-940 2159.36,-940 2159.36,4 -4,4"/>
<!--  CHI_Age  -->
<g id="node1" class="node"><title> CHI_Age </title>
<ellipse fill="none" stroke="black" cx="1427.27" cy="-378" rx="53.3129" ry="18"/>
<text text-anchor="middle" x="1427.27" y="-373.8" font-family="Times,serif" font-size="14.00"> CHI_Age </text>
</g>
<!--  BF_BottleFeeding  -->
<g id="node2" class="node"><title> BF_BottleFeeding </title>
<ellipse fill="none" stroke="black" cx="933.268" cy="-198" rx="87.4389" ry="18"/>
<text text-anchor="middle" x="933.268" y="-193.8" font-family="Times,serif" font-size="14.00"> BF_BottleFeeding </text>
</g>
<!--  CHI_Age &#45;&gt; BF_BottleFeeding  -->
<g id="edge1" class="edge"><title> CHI_Age &#45;&gt; BF_BottleFeeding </title>
<path fill="none" stroke="black" d="M1392.14,-364.341C1306.17,-333.365 1084.91,-253.641 984.36,-217.41"/>
<polygon fill="black" stroke="black" points="985.32,-214.035 974.726,-213.938 982.947,-220.621 985.32,-214.035"/>
</g>
<!--  BF_BreastfedMonths  -->
<g id="node3" class="node"><title> BF_BreastfedMonths </title>
<ellipse fill="none" stroke="black" cx="1126.27" cy="-198" rx="99.0168" ry="18"/>
<text text-anchor="middle" x="1126.27" y="-193.8" font-family="Times,serif" font-size="14.00"> BF_BreastfedMonths </text>
</g>
<!--  CHI_Age &#45;&gt; BF_BreastfedMonths  -->
<g id="edge2" class="edge"><title> CHI_Age &#45;&gt; BF_BreastfedMonths </title>
<path fill="none" stroke="black" d="M1401.86,-361.977C1348.5,-330.422 1224.6,-257.152 1162.75,-220.576"/>
<polygon fill="black" stroke="black" points="1164.48,-217.533 1154.09,-215.456 1160.92,-223.559 1164.48,-217.533"/>
</g>
<!--  CHI_Weight4Height  -->
<g id="node4" class="node"><title> CHI_Weight4Height </title>
<ellipse fill="none" stroke="black" cx="1329.27" cy="-198" rx="96.7138" ry="18"/>
<text text-anchor="middle" x="1329.27" y="-193.8" font-family="Times,serif" font-size="14.00"> CHI_Weight4Height </text>
</g>
<!--  CHI_Age &#45;&gt; CHI_Weight4Height  -->
<g id="edge3" class="edge"><title> CHI_Age &#45;&gt; CHI_Weight4Height </title>
<path fill="none" stroke="black" d="M1418.05,-360.254C1400.95,-329.191 1364.19,-262.434 1343.74,-225.293"/>
<polygon fill="black" stroke="black" points="1346.57,-223.164 1338.68,-216.092 1340.43,-226.54 1346.57,-223.164"/>
</g>
<!--  DIA_HadDiarrhoea  -->
<g id="node9" class="node"><title> DIA_HadDiarrhoea </title>
<ellipse fill="none" stroke="black" cx="1525.27" cy="-198" rx="92.5784" ry="18"/>
<text text-anchor="middle" x="1525.27" y="-193.8" font-family="Times,serif" font-size="14.00"> DIA_HadDiarrhoea </text>
</g>
<!--  CHI_Age &#45;&gt; DIA_HadDiarrhoea  -->
<g id="edge6" class="edge"><title> CHI_Age &#45;&gt; DIA_HadDiarrhoea </title>
<path fill="none" stroke="black" d="M1436.49,-360.254C1453.59,-329.191 1490.34,-262.434 1510.79,-225.293"/>
<polygon fill="black" stroke="black" points="1514.1,-226.54 1515.86,-216.092 1507.97,-223.164 1514.1,-226.54"/>
</g>
<!--  FP_ModernMethod  -->
<g id="node11" class="node"><title> FP_ModernMethod </title>
<ellipse fill="none" stroke="black" cx="1717.27" cy="-198" rx="92.0818" ry="18"/>
<text text-anchor="middle" x="1717.27" y="-193.8" font-family="Times,serif" font-size="14.00"> FP_ModernMethod </text>
</g>
<!--  CHI_Age &#45;&gt; FP_ModernMethod  -->
<g id="edge8" class="edge"><title> CHI_Age &#45;&gt; FP_ModernMethod </title>
<path fill="none" stroke="black" d="M1451.99,-361.824C1503.46,-330.237 1622.24,-257.33 1681.83,-220.754"/>
<polygon fill="black" stroke="black" points="1683.83,-223.633 1690.52,-215.419 1680.16,-217.668 1683.83,-223.633"/>
</g>
<!--  IMM_Measles  -->
<g id="node14" class="node"><title> IMM_Measles </title>
<ellipse fill="none" stroke="black" cx="1889.27" cy="-198" rx="72.9315" ry="18"/>
<text text-anchor="middle" x="1889.27" y="-193.8" font-family="Times,serif" font-size="14.00"> IMM_Measles </text>
</g>
<!--  CHI_Age &#45;&gt; IMM_Measles  -->
<g id="edge12" class="edge"><title> CHI_Age &#45;&gt; IMM_Measles </title>
<path fill="none" stroke="black" d="M1461.24,-363.911C1542.65,-332.545 1749.03,-253.031 1842.27,-217.108"/>
<polygon fill="black" stroke="black" points="1843.66,-220.323 1851.73,-213.462 1841.14,-213.791 1843.66,-220.323"/>
</g>
<!--  MTH_MaternalAge  -->
<g id="node20" class="node"><title> MTH_MaternalAge </title>
<ellipse fill="none" stroke="black" cx="2062.27" cy="-198" rx="93.1794" ry="18"/>
<text text-anchor="middle" x="2062.27" y="-193.8" font-family="Times,serif" font-size="14.00"> MTH_MaternalAge </text>
</g>
<!--  CHI_Age &#45;&gt; MTH_MaternalAge  -->
<g id="edge17" class="edge"><title> CHI_Age &#45;&gt; MTH_MaternalAge </title>
<path fill="none" stroke="black" d="M1466.99,-365.865C1574.82,-335.638 1873.54,-251.903 2002.13,-215.858"/>
<polygon fill="black" stroke="black" points="2003.14,-219.209 2011.82,-213.14 2001.25,-212.469 2003.14,-219.209"/>
</g>
<!--  FP_BirthsLast5Yrs  -->
<g id="node10" class="node"><title> FP_BirthsLast5Yrs </title>
<ellipse fill="none" stroke="black" cx="1126.27" cy="-18" rx="90.3641" ry="18"/>
<text text-anchor="middle" x="1126.27" y="-13.8" font-family="Times,serif" font-size="14.00"> FP_BirthsLast5Yrs </text>
</g>
<!--  BF_BreastfedMonths &#45;&gt; FP_BirthsLast5Yrs  -->
<g id="edge7" class="edge"><title> BF_BreastfedMonths &#45;&gt; FP_BirthsLast5Yrs </title>
<path fill="none" stroke="black" d="M1126.27,-179.933C1126.27,-148.966 1126.27,-83.2989 1126.27,-46.1292"/>
<polygon fill="black" stroke="black" points="1129.77,-46.0157 1126.27,-36.0157 1122.77,-46.0158 1129.77,-46.0157"/>
</g>
<!--  CUL_LanguageGroup  -->
<g id="node5" class="node"><title> CUL_LanguageGroup </title>
<ellipse fill="none" stroke="black" cx="277.268" cy="-378" rx="103" ry="18"/>
<text text-anchor="middle" x="277.268" y="-373.8" font-family="Times,serif" font-size="14.00"> CUL_LanguageGroup </text>
</g>
<!--  CUL_Religion  -->
<g id="node6" class="node"><title> CUL_Religion </title>
<ellipse fill="none" stroke="black" cx="73.2678" cy="-198" rx="73.0363" ry="18"/>
<text text-anchor="middle" x="73.2678" y="-193.8" font-family="Times,serif" font-size="14.00"> CUL_Religion </text>
</g>
<!--  CUL_LanguageGroup &#45;&gt; CUL_Religion  -->
<g id="edge4" class="edge"><title> CUL_LanguageGroup &#45;&gt; CUL_Religion </title>
<path fill="none" stroke="black" d="M258.076,-360.254C221.456,-328.302 141.551,-258.581 99.8292,-222.176"/>
<polygon fill="black" stroke="black" points="102.096,-219.509 92.26,-215.572 97.4938,-224.783 102.096,-219.509"/>
</g>
<!--  HOU_ModernWallMaterial  -->
<g id="node13" class="node"><title> HOU_ModernWallMaterial </title>
<ellipse fill="none" stroke="black" cx="277.268" cy="-198" rx="123.816" ry="18"/>
<text text-anchor="middle" x="277.268" y="-193.8" font-family="Times,serif" font-size="14.00"> HOU_ModernWallMaterial </text>
</g>
<!--  CUL_LanguageGroup &#45;&gt; HOU_ModernWallMaterial  -->
<g id="edge11" class="edge"><title> CUL_LanguageGroup &#45;&gt; HOU_ModernWallMaterial </title>
<path fill="none" stroke="black" d="M277.268,-359.933C277.268,-328.966 277.268,-263.299 277.268,-226.129"/>
<polygon fill="black" stroke="black" points="280.768,-226.016 277.268,-216.016 273.768,-226.016 280.768,-226.016"/>
</g>
<!--  BF_EarlyBreastfeeding  -->
<g id="node7" class="node"><title> BF_EarlyBreastfeeding </title>
<ellipse fill="none" stroke="black" cx="497.268" cy="-378" rx="107.08" ry="18"/>
<text text-anchor="middle" x="497.268" y="-373.8" font-family="Times,serif" font-size="14.00"> BF_EarlyBreastfeeding </text>
</g>
<!--  DEL_SmallBaby  -->
<g id="node8" class="node"><title> DEL_SmallBaby </title>
<ellipse fill="none" stroke="black" cx="490.268" cy="-198" rx="82.2642" ry="18"/>
<text text-anchor="middle" x="490.268" y="-193.8" font-family="Times,serif" font-size="14.00"> DEL_SmallBaby </text>
</g>
<!--  BF_EarlyBreastfeeding &#45;&gt; DEL_SmallBaby  -->
<g id="edge5" class="edge"><title> BF_EarlyBreastfeeding &#45;&gt; DEL_SmallBaby </title>
<path fill="none" stroke="black" d="M496.597,-359.933C495.379,-328.966 492.796,-263.299 491.335,-226.129"/>
<polygon fill="black" stroke="black" points="494.827,-225.87 490.937,-216.016 487.833,-226.146 494.827,-225.87"/>
</g>
<!--  GEO_Region  -->
<g id="node12" class="node"><title> GEO_Region </title>
<ellipse fill="none" stroke="black" cx="602.268" cy="-558" rx="68.3633" ry="18"/>
<text text-anchor="middle" x="602.268" y="-553.8" font-family="Times,serif" font-size="14.00"> GEO_Region </text>
</g>
<!--  GEO_Region &#45;&gt; CUL_LanguageGroup  -->
<g id="edge10" class="edge"><title> GEO_Region &#45;&gt; CUL_LanguageGroup </title>
<path fill="none" stroke="black" d="M573.995,-541.515C515.733,-509.606 382.232,-436.488 315.999,-400.213"/>
<polygon fill="black" stroke="black" points="317.566,-397.081 307.114,-395.347 314.204,-403.22 317.566,-397.081"/>
</g>
<!--  GEO_Region &#45;&gt; BF_EarlyBreastfeeding  -->
<g id="edge9" class="edge"><title> GEO_Region &#45;&gt; BF_EarlyBreastfeeding </title>
<path fill="none" stroke="black" d="M592.2,-539.933C573.698,-508.568 534.196,-441.602 512.432,-404.708"/>
<polygon fill="black" stroke="black" points="515.401,-402.851 507.305,-396.016 509.371,-406.407 515.401,-402.851"/>
</g>
<!--  WSH_WaterTreated  -->
<g id="node28" class="node"><title> WSH_WaterTreated </title>
<ellipse fill="none" stroke="black" cx="708.268" cy="-378" rx="95.4443" ry="18"/>
<text text-anchor="middle" x="708.268" y="-373.8" font-family="Times,serif" font-size="14.00"> WSH_WaterTreated </text>
</g>
<!--  GEO_Region &#45;&gt; WSH_WaterTreated  -->
<g id="edge26" class="edge"><title> GEO_Region &#45;&gt; WSH_WaterTreated </title>
<path fill="none" stroke="black" d="M612.432,-539.933C631.11,-508.568 670.988,-441.602 692.959,-404.708"/>
<polygon fill="black" stroke="black" points="696.025,-406.398 698.135,-396.016 690.011,-402.817 696.025,-406.398"/>
</g>
<!--  IMM_Diptheria  -->
<g id="node15" class="node"><title> IMM_Diptheria </title>
<ellipse fill="none" stroke="black" cx="1804.27" cy="-18" rx="77.5878" ry="18"/>
<text text-anchor="middle" x="1804.27" y="-13.8" font-family="Times,serif" font-size="14.00"> IMM_Diptheria </text>
</g>
<!--  IMM_Measles &#45;&gt; IMM_Diptheria  -->
<g id="edge13" class="edge"><title> IMM_Measles &#45;&gt; IMM_Diptheria </title>
<path fill="none" stroke="black" d="M1881.12,-179.933C1866.2,-148.7 1834.43,-82.169 1816.77,-45.1784"/>
<polygon fill="black" stroke="black" points="1819.86,-43.5314 1812.39,-36.0157 1813.54,-46.5479 1819.86,-43.5314"/>
</g>
<!--  IMM_VitaminA1  -->
<g id="node16" class="node"><title> IMM_VitaminA1 </title>
<ellipse fill="none" stroke="black" cx="1973.27" cy="-18" rx="84.5517" ry="18"/>
<text text-anchor="middle" x="1973.27" y="-13.8" font-family="Times,serif" font-size="14.00"> IMM_VitaminA1 </text>
</g>
<!--  IMM_Measles &#45;&gt; IMM_VitaminA1  -->
<g id="edge14" class="edge"><title> IMM_Measles &#45;&gt; IMM_VitaminA1 </title>
<path fill="none" stroke="black" d="M1897.32,-179.933C1912.06,-148.7 1943.46,-82.169 1960.91,-45.1784"/>
<polygon fill="black" stroke="black" points="1964.14,-46.553 1965.24,-36.0157 1957.8,-43.5656 1964.14,-46.553"/>
</g>
<!--  ECO_WealthQuintile  -->
<g id="node17" class="node"><title> ECO_WealthQuintile </title>
<ellipse fill="none" stroke="black" cx="442.268" cy="-918" rx="99.5771" ry="18"/>
<text text-anchor="middle" x="442.268" y="-913.8" font-family="Times,serif" font-size="14.00"> ECO_WealthQuintile </text>
</g>
<!--  KNW_WatchTV  -->
<g id="node18" class="node"><title> KNW_WatchTV </title>
<ellipse fill="none" stroke="black" cx="125.268" cy="-738" rx="81.6461" ry="18"/>
<text text-anchor="middle" x="125.268" y="-733.8" font-family="Times,serif" font-size="14.00"> KNW_WatchTV </text>
</g>
<!--  ECO_WealthQuintile &#45;&gt; KNW_WatchTV  -->
<g id="edge15" class="edge"><title> ECO_WealthQuintile &#45;&gt; KNW_WatchTV </title>
<path fill="none" stroke="black" d="M413.296,-900.732C355.607,-868.339 226.447,-795.814 162.541,-759.929"/>
<polygon fill="black" stroke="black" points="164.035,-756.754 153.602,-754.91 160.608,-762.858 164.035,-756.754"/>
</g>
<!--  MTH_Education  -->
<g id="node19" class="node"><title> MTH_Education </title>
<ellipse fill="none" stroke="black" cx="295.268" cy="-738" rx="81.1052" ry="18"/>
<text text-anchor="middle" x="295.268" y="-733.8" font-family="Times,serif" font-size="14.00"> MTH_Education </text>
</g>
<!--  ECO_WealthQuintile &#45;&gt; MTH_Education  -->
<g id="edge16" class="edge"><title> ECO_WealthQuintile &#45;&gt; MTH_Education </title>
<path fill="none" stroke="black" d="M428.173,-899.933C401.984,-868.221 345.741,-800.117 315.497,-763.495"/>
<polygon fill="black" stroke="black" points="318.172,-761.238 309.105,-755.756 312.774,-765.695 318.172,-761.238"/>
</g>
<!--  SRV_Near  -->
<g id="node21" class="node"><title> SRV_Near </title>
<ellipse fill="none" stroke="black" cx="442.268" cy="-738" rx="58.4667" ry="18"/>
<text text-anchor="middle" x="442.268" y="-733.8" font-family="Times,serif" font-size="14.00"> SRV_Near </text>
</g>
<!--  ECO_WealthQuintile &#45;&gt; SRV_Near  -->
<g id="edge18" class="edge"><title> ECO_WealthQuintile &#45;&gt; SRV_Near </title>
<path fill="none" stroke="black" d="M442.268,-899.933C442.268,-868.966 442.268,-803.299 442.268,-766.129"/>
<polygon fill="black" stroke="black" points="445.768,-766.016 442.268,-756.016 438.768,-766.016 445.768,-766.016"/>
</g>
<!--  WSH_ImprovedToilet  -->
<g id="node23" class="node"><title> WSH_ImprovedToilet </title>
<ellipse fill="none" stroke="black" cx="610.268" cy="-738" rx="102.513" ry="18"/>
<text text-anchor="middle" x="610.268" y="-733.8" font-family="Times,serif" font-size="14.00"> WSH_ImprovedToilet </text>
</g>
<!--  ECO_WealthQuintile &#45;&gt; WSH_ImprovedToilet  -->
<g id="edge20" class="edge"><title> ECO_WealthQuintile &#45;&gt; WSH_ImprovedToilet </title>
<path fill="none" stroke="black" d="M458.376,-899.933C488.356,-868.169 552.795,-799.894 587.318,-763.315"/>
<polygon fill="black" stroke="black" points="589.889,-765.69 594.208,-756.016 584.799,-760.886 589.889,-765.69"/>
</g>
<!--  WSH_WashWithAgent  -->
<g id="node27" class="node"><title> WSH_WashWithAgent </title>
<ellipse fill="none" stroke="black" cx="827.268" cy="-738" rx="107.088" ry="18"/>
<text text-anchor="middle" x="827.268" y="-733.8" font-family="Times,serif" font-size="14.00"> WSH_WashWithAgent </text>
</g>
<!--  ECO_WealthQuintile &#45;&gt; WSH_WashWithAgent  -->
<g id="edge25" class="edge"><title> ECO_WealthQuintile &#45;&gt; WSH_WashWithAgent </title>
<path fill="none" stroke="black" d="M476.773,-901.047C546.775,-868.682 705.4,-795.344 782.934,-759.497"/>
<polygon fill="black" stroke="black" points="784.816,-762.483 792.424,-755.109 781.879,-756.129 784.816,-762.483"/>
</g>
<!--  SRV_OKAlone  -->
<g id="node22" class="node"><title> SRV_OKAlone </title>
<ellipse fill="none" stroke="black" cx="442.268" cy="-558" rx="77.0294" ry="18"/>
<text text-anchor="middle" x="442.268" y="-553.8" font-family="Times,serif" font-size="14.00"> SRV_OKAlone </text>
</g>
<!--  SRV_Near &#45;&gt; SRV_OKAlone  -->
<g id="edge19" class="edge"><title> SRV_Near &#45;&gt; SRV_OKAlone </title>
<path fill="none" stroke="black" d="M442.268,-719.933C442.268,-688.966 442.268,-623.299 442.268,-586.129"/>
<polygon fill="black" stroke="black" points="445.768,-586.016 442.268,-576.016 438.768,-586.016 445.768,-586.016"/>
</g>
<!--  WSH_ImprovedToilet &#45;&gt; GEO_Region  -->
<g id="edge21" class="edge"><title> WSH_ImprovedToilet &#45;&gt; GEO_Region </title>
<path fill="none" stroke="black" d="M609.501,-719.933C608.109,-688.966 605.158,-623.299 603.487,-586.129"/>
<polygon fill="black" stroke="black" points="606.978,-585.848 603.033,-576.016 599.985,-586.163 606.978,-585.848"/>
</g>
<!--  WSH_SafeStoolDisposal  -->
<g id="node26" class="node"><title> WSH_SafeStoolDisposal </title>
<ellipse fill="none" stroke="black" cx="1114.27" cy="-558" rx="113.482" ry="18"/>
<text text-anchor="middle" x="1114.27" y="-553.8" font-family="Times,serif" font-size="14.00"> WSH_SafeStoolDisposal </text>
</g>
<!--  WSH_ImprovedToilet &#45;&gt; WSH_SafeStoolDisposal  -->
<g id="edge24" class="edge"><title> WSH_ImprovedToilet &#45;&gt; WSH_SafeStoolDisposal </title>
<path fill="none" stroke="black" d="M653.675,-721.67C745.644,-689.189 959.908,-613.516 1060.41,-578.02"/>
<polygon fill="black" stroke="black" points="1061.8,-581.241 1070.07,-574.611 1059.47,-574.641 1061.8,-581.241"/>
</g>
<!--  WSH_ImprovedWaterSource  -->
<g id="node24" class="node"><title> WSH_ImprovedWaterSource </title>
<ellipse fill="none" stroke="black" cx="709.268" cy="-198" rx="130.182" ry="18"/>
<text text-anchor="middle" x="709.268" y="-193.8" font-family="Times,serif" font-size="14.00"> WSH_ImprovedWaterSource </text>
</g>
<!--  HOU_CookingFuel  -->
<g id="node25" class="node"><title> HOU_CookingFuel </title>
<ellipse fill="none" stroke="black" cx="709.268" cy="-18" rx="92.0818" ry="18"/>
<text text-anchor="middle" x="709.268" y="-13.8" font-family="Times,serif" font-size="14.00"> HOU_CookingFuel </text>
</g>
<!--  WSH_ImprovedWaterSource &#45;&gt; HOU_CookingFuel  -->
<g id="edge22" class="edge"><title> WSH_ImprovedWaterSource &#45;&gt; HOU_CookingFuel </title>
<path fill="none" stroke="black" d="M709.268,-179.933C709.268,-148.966 709.268,-83.2989 709.268,-46.1292"/>
<polygon fill="black" stroke="black" points="712.768,-46.0157 709.268,-36.0157 705.768,-46.0158 712.768,-46.0157"/>
</g>
<!--  WSH_SafeStoolDisposal &#45;&gt; CHI_Age  -->
<g id="edge23" class="edge"><title> WSH_SafeStoolDisposal &#45;&gt; CHI_Age </title>
<path fill="none" stroke="black" d="M1143.15,-540.573C1200.73,-507.828 1329.63,-434.528 1392.05,-399.028"/>
<polygon fill="black" stroke="black" points="1394.16,-401.856 1401.12,-393.87 1390.7,-395.771 1394.16,-401.856"/>
</g>
<!--  WSH_WaterTreated &#45;&gt; WSH_ImprovedWaterSource  -->
<g id="edge27" class="edge"><title> WSH_WaterTreated &#45;&gt; WSH_ImprovedWaterSource </title>
<path fill="none" stroke="black" d="M708.364,-359.933C708.538,-328.966 708.907,-263.299 709.115,-226.129"/>
<polygon fill="black" stroke="black" points="712.616,-226.035 709.172,-216.016 705.616,-225.996 712.616,-226.035"/>
</g>
</g>
</svg>

